<?xml version="1.0" encoding="utf-8"?>
<!-- Generator: Adobe Illustrator 19.2.1, SVG Export Plug-In . SVG Version: 6.00 Build 0)  -->
<svg version="1.1" id="Layer_1" xmlns="http://www.w3.org/2000/svg" xmlns:xlink="http://www.w3.org/1999/xlink" x="0px" y="0px"
	 viewBox="0 0 186.1 28.2" style="enable-background:new 0 0 186.1 28.2;" xml:space="preserve">
<style type="text/css">
	.st0{fill:#FFFFFF;}
	.st1{fill:#9EC646;}
</style>
<path class="st0" d="M14.6,25.8c-1,0-1.8-0.8-1.8-1.8v-8.1H3.6V24c0,1-0.8,1.8-1.8,1.8C0.8,25.8,0,25,0,24V4.1c0-1,0.8-1.8,1.8-1.8
	c1,0,1.8,0.8,1.8,1.8v8.5h9.3V4.1c0-1,0.8-1.8,1.8-1.8c1,0,1.8,0.8,1.8,1.8V24C16.4,25,15.6,25.8,14.6,25.8"/>
<path class="st0" d="M31.5,25.7c-0.6,0-1.3-0.2-1.8-0.7c-0.3-0.3-0.6-0.7-0.8-1c-1.1,1.1-2.6,1.7-4.7,1.7c-3.8,0-5.2-2.4-5.2-5.8v-9
	c0-0.9,0.8-1.7,1.8-1.7s1.8,0.8,1.8,1.7l0,8.5c0,1.7,0.5,2.9,2.6,2.9c1.5,0,2.6-0.7,3.2-1.7V11c0-0.9,0.8-1.7,1.8-1.7
	s1.8,0.8,1.8,1.7v10.3c0,1.2,0.4,1.5,0.9,1.9c0.3,0.2,0.6,0.6,0.6,1.1C33.2,25.3,32.5,25.7,31.5,25.7"/>
<path class="st0" d="M46.4,25.7c-0.9,0-1.7-0.8-1.7-1.8v-8.5c0-1.6-0.5-2.9-2.6-2.9c-1.5,0-2.6,0.7-3.2,1.7V24c0,1-0.8,1.8-1.8,1.8
	c-0.9,0-1.7-0.8-1.7-1.8V13.8c0-1.2-0.4-1.5-1-1.9c-0.3-0.2-0.6-0.6-0.6-1.1c0-1,0.8-1.5,1.8-1.5c0.6,0,1.3,0.2,1.8,0.7
	c0.3,0.3,0.5,0.6,0.7,0.9c1.1-1.1,2.7-1.8,4.8-1.8c4,0,5.2,2.4,5.2,5.8V24C48.1,24.9,47.3,25.7,46.4,25.7"/>
<path class="st0" d="M58.1,25.5h-1c-4.5,0-5.8-2.8-5.8-7v-6.2h-0.7c-0.8,0-1.4-0.6-1.4-1.4c0-0.8,0.6-1.4,1.4-1.4h0.7V6.7
	C51.3,5.8,52,5,53,5c1,0,1.8,0.8,1.8,1.8v2.7h2.6c0.8,0,1.5,0.6,1.5,1.4c0,0.8-0.7,1.4-1.5,1.4h-2.6v6.1c0,2.8,0.5,4,2.8,4h0.6
	c0.9,0,1.6,0.7,1.6,1.6C59.7,24.8,59,25.5,58.1,25.5"/>
<path class="st0" d="M64.4,25.7c-0.6,0-1.3-0.3-1.8-0.7c-0.9-0.7-1.4-1.8-1.4-3.3V4.5c0-1,0.8-1.7,1.7-1.7c1,0,1.8,0.8,1.8,1.7v16.8
	c0,1.2,0.4,1.5,1,1.9c0.3,0.2,0.5,0.6,0.5,1.1C66.2,25.3,65.5,25.7,64.4,25.7"/>
<path class="st0" d="M76.8,15.4c0-2.1-0.8-3.4-2.9-3.4c-2.1,0-3,1.3-3,3.4v0.5h5.9V15.4z M79,18.6h-8v0.7c0,2.2,1,3.5,3.1,3.5
	c1.7,0,2.6-0.3,3.7-0.8c0.7-0.3,1.5,0.1,1.8,0.9c0.3,0.8,0,1.4-0.7,1.8c-1.6,0.8-3.3,1.1-4.9,1.1c-4.7,0-6.4-3.1-6.4-6.8v-3
	c0-3.6,1.9-6.8,6.4-6.8c4.7,0,6.3,3.1,6.3,6.7v1.3C80.2,18,79.6,18.6,79,18.6"/>
<path class="st0" d="M91.3,15.4c0-2.1-0.8-3.4-2.9-3.4c-2.1,0-3,1.3-3,3.4v0.5h5.9V15.4z M93.4,18.6h-8v0.7c0,2.2,1,3.5,3.1,3.5
	c1.7,0,2.6-0.3,3.7-0.8c0.7-0.3,1.5,0.1,1.8,0.9c0.3,0.8,0,1.4-0.7,1.8c-1.6,0.8-3.3,1.1-4.9,1.1c-4.7,0-6.4-3.1-6.4-6.8v-3
	c0-3.6,1.9-6.8,6.4-6.8c4.7,0,6.3,3.1,6.3,6.7v1.3C94.6,18,94,18.6,93.4,18.6"/>
<path class="st1" d="M115.5,0c-7.8,0-14.1,6.3-14.1,14.1c0,7.8,6.3,14.1,14.1,14.1c7.8,0,14.1-6.3,14.1-14.1
	C129.6,6.3,123.3,0,115.5,0z M121.5,16h-4.1V20c0,1.1-0.8,1.9-1.9,1.9c-1.1,0-1.9-0.8-1.9-1.9V16h-4.1c-1,0-1.9-0.8-1.9-1.9
	c0-1.1,0.8-1.9,1.9-1.9h4.1V8.1c0-1.1,0.8-1.9,1.9-1.9c1,0,1.9,0.8,1.9,1.9v4.1h4.1c1.1,0,1.9,0.8,1.9,1.9
	C123.4,15.1,122.5,16,121.5,16z"/>
<g>
	<path class="st0" d="M142.8,15.9h-5.9v9.4c0,0.4-0.3,0.7-0.7,0.7c-0.4,0-0.7-0.3-0.7-0.7V3.1c0-0.4,0.3-0.7,0.7-0.7h6.2
		c5.4,0,7.4,3.1,7.4,6V10C149.8,13.4,147.1,15.9,142.8,15.9z M148.4,8.4c0-2.1-1.4-4.7-6.1-4.7h-5.5v10.9h5.9c3.8,0,5.7-2.1,5.7-4.6
		V8.4z"/>
	<path class="st0" d="M155.7,25.9c-0.3,0-1-0.3-1.4-0.7c-0.7-0.6-0.8-1.5-0.8-2.2V3.2c0-0.4,0.3-0.6,0.6-0.6c0.4,0,0.6,0.3,0.6,0.6
		v19.3c0,1.5,0.3,1.9,1.1,2.2c0.4,0.1,0.5,0.4,0.5,0.6C156.4,25.7,156.1,25.9,155.7,25.9z"/>
	<path class="st0" d="M172.4,25.9c-0.3,0-1-0.3-1.4-0.7c-0.4-0.4-0.7-0.9-0.8-1.4c-1.1,1.3-2.8,2.1-5.2,2.1c-4.1,0-5.1-2.6-5.1-5.7
		v-9.8c0-0.4,0.3-0.6,0.6-0.6s0.6,0.3,0.6,0.6v9.8c0,2.8,0.8,4.4,3.8,4.4c2.7,0,4.3-1.2,5.1-2.9V10.5c0-0.4,0.3-0.6,0.6-0.6
		c0.4,0,0.6,0.3,0.6,0.6v12c0,1.5,0.3,1.9,1.1,2.2c0.4,0.1,0.5,0.4,0.5,0.6C173.1,25.7,172.8,25.9,172.4,25.9z"/>
	<path class="st0" d="M180.6,25.9c-1.9,0-3.2-0.2-4.4-0.7c-0.4-0.2-0.5-0.6-0.4-0.9s0.4-0.5,0.8-0.3c1.1,0.4,2.1,0.6,4,0.6
		c3,0,4.2-1.4,4.2-3.3c0-2.4-2.3-2.7-4.6-3.1c-2.2-0.4-4.4-1.1-4.4-4c0-2.7,2-4.4,5-4.4c1.5,0,2.6,0.2,3.8,0.7
		c0.4,0.2,0.4,0.6,0.3,0.9c-0.1,0.3-0.4,0.4-0.8,0.3c-1-0.4-1.9-0.6-3.3-0.6c-2.4,0-3.7,1.3-3.7,3.1c0,2.2,2,2.5,4.2,2.9
		c2.4,0.4,4.8,1,4.8,4.2C186.1,24.2,184.2,25.9,180.6,25.9z"/>
</g>
<path class="st0" d="M121.5,16h-4.1V20c0,1.1-0.8,1.9-1.9,1.9c-1.1,0-1.9-0.8-1.9-1.9V16h-4.1c-1,0-1.9-0.8-1.9-1.9
	c0-1.1,0.8-1.9,1.9-1.9h4.1V8.1c0-1.1,0.8-1.9,1.9-1.9c1,0,1.9,0.8,1.9,1.9v4.1h4.1c1.1,0,1.9,0.8,1.9,1.9
	C123.4,15.1,122.5,16,121.5,16z"/>
</svg>
