<?xml version="1.0" standalone="no"?> <!DOCTYPE svg PUBLIC "-//W3C//DTD SVG 1.0//EN" "http://www.w3.org/TR/2001/REC-SVG-20010904/DTD/svg10.dtd" > <svg xmlns="http://www.w3.org/2000/svg" width="100%" height="100%">
<defs >
<font id="ChevinStd-Thin" horiz-adv-x="402" ><font-face
    font-family="ChevinStd-Thin"
    units-per-em="1000"
    panose-1="2 0 5 6 3 0 0 2 0 3"
    ascent="750"
    descent="-250"
    alphabetic="0" />
<missing-glyph horiz-adv-x="1000" />
<glyph unicode=" " glyph-name="space" horiz-adv-x="282" />
<glyph unicode="!" glyph-name="exclam" horiz-adv-x="245" d="M154 711L148 198Q148 177 127 177Q108 177 106 198L101 711Q101 738 127 738Q154 738 154 711ZM167 48T167 31T155 2T127 -11Q110 -11 98 1T85 31Q85 47 97 59T127 71T155 60Z" />
<glyph unicode="&quot;" glyph-name="quotedbl" horiz-adv-x="297" d="M247 711L242 574Q240 553 221 553Q200 553 200 574L194 711Q194 738 221 738Q234 738 241 730T247 711ZM103 711L97 574Q97 553 77 553Q56 553 56 574L50 711Q49 722 56 730T77 738Q90 738
97 730T103 711Z" />
<glyph unicode="#" glyph-name="numbersign" horiz-adv-x="760" d="M715 511T715 503T709 489T695 483H544L507 242H652Q660 242 666 236T672 222T666 208T652 202H501L472 8Q471 -1 464 -6T448 -10Q439 -9 434 -2T430 14L459 202H239L209 8Q208 -1 201 -6T185
-10Q177 -8 172 -1T168 14L196 202H50Q42 202 36 208T30 222T36 236T50 242H202L239 483H93Q85 483 79 489T73 503T79 517T93 523H245L275 721Q277 729 284 734T299 738Q319 735 317 714L288 523H507L537 721Q539 729 546 734T561 738Q582 734 579 714L550 523H695Q703
523 709 517ZM501 483H281L245 242H465L501 483Z" />
<glyph unicode="$" glyph-name="dollar" horiz-adv-x="560" d="M510 202Q510 109 451 53T284 -9V-90Q284 -99 278 -105T263 -111Q254 -111 248 -105T242 -90V-10Q134 -9 64 26Q52 32 52 44Q52 53 58 59T73 66Q78 66 87 62T116 50T163 37Q211 29 258 29Q362 29
415 76T468 202Q468 299 372 332Q349 339 264 353T143 384Q51 424 51 537Q51 622 103 675T242 736V819Q242 827 248 833T263 840Q271 840 277 834T284 819V737Q378 737 442 705Q454 699 454 687Q454 678 448 672T433 665Q429 665 420 669T393 680T352 691Q315 698
271 698Q189 698 141 654T93 537Q93 483 119 454T193 410Q202 407 305 389T447 343Q510 298 510 202Z" />
<glyph unicode="%" glyph-name="percent" horiz-adv-x="534" d="M267 561Q267 513 239 483T164 452T89 482T60 561V629Q60 677 89 707T164 738T238 708T267 629V561ZM415 713L156 3Q154 -4 147 -7T131 -9Q113 -2 120 16L378 726Q385 744 403 737Q410 735 413 728T415
713ZM474 100Q474 51 446 21T370 -9Q325 -9 296 21T267 100V168Q267 216 296 246T370 277Q416 277 445 247T474 168V100ZM230 557V632Q230 665 212 684T164 703T116 684T97 632V557Q97 525 115 506T164 487T212 506T230 557ZM438 97V171Q438 203 420 222T370 241Q341
241 323 222T305 171V97Q305 64 323 45T370 26Q401 26 419 45T438 97Z" />
<glyph unicode="&amp;" glyph-name="ampersand" horiz-adv-x="611" d="M578 11Q578 2 572 -4T557 -10Q546 -10 540 -1L473 87Q393 -10 254 -10Q157 -10 104 50T50 193Q50 235 64 270T104 333T157 380T220 421Q191 458 179 475T152 526T136 589Q136 661 184 699T290
738Q358 738 401 713Q427 698 446 675T465 639Q465 630 459 624T443 618Q438 618 434 620T428 625T422 634T416 644Q403 662 384 675Q348 699 290 699Q247 699 213 670T178 589Q178 573 183 556T200 520T220 490T245 457T266 431L472 159Q514 238 517 339Q517 348
523 353T538 359T552 353T559 337Q553 212 499 123L574 24Q578 19 578 11ZM448 121L245 389Q173 349 133 303T92 193Q92 126 134 78T254 30Q377 30 448 121Z" />
<glyph unicode="&apos;" glyph-name="quotesingle" horiz-adv-x="153" d="M103 711L97 574Q97 553 77 553Q56 553 56 574L50 711Q49 722 56 730T77 738Q90 738 97 730T103 711Z" />
<glyph unicode="(" glyph-name="parenleft" horiz-adv-x="250" d="M205 -158Q205 -168 199 -174T185 -180Q173 -180 168 -170Q50 27 50 321T168 812Q174 823 185 823Q193 823 199 817T205 801Q205 794 202 787Q92 603 92 321T202 -145Q205 -151 205 -158Z" />
<glyph unicode=")" glyph-name="parenright" horiz-adv-x="250" d="M200 617T200 321T83 -170Q77 -180 66 -180Q57 -180 51 -174T45 -158Q45 -150 49 -145Q158 37 158 321T49 787Q45 794 45 801Q45 810 51 816T66 823Q76 823 83 812Q200 617 200 321Z" />
<glyph unicode="*" glyph-name="asterisk" horiz-adv-x="477" d="M425 601Q432 576 408 570L270 530L359 417Q374 396 354 382Q333 366 319 388L238 507L158 388Q144 366 123 382Q103 396 118 417L207 530L68 570Q58 572 53 580T52 601Q59 625 83 617L219 567L214
711Q213 721 219 729T238 737Q263 737 263 711L258 567L393 617Q418 625 425 601Z" />
<glyph unicode="+" glyph-name="plus" horiz-adv-x="519" d="M459 277T459 269T453 255T439 249H280V89Q280 81 274 75T260 69T246 75T240 89V249H80Q72 249 66 255T60 269T66 283T80 289H240V449Q240 457 246 463T260 469T274 463T280 449V289H439Q447 289 453 283Z" />
<glyph unicode="," glyph-name="comma" horiz-adv-x="205" d="M148 16Q148 -34 125 -65T81 -96Q68 -96 68 -84Q68 -76 86 -56T105 -11Q88 -11 76 1T64 31T76 61T105 73Q125 73 136 57T148 16Z" />
<glyph unicode="-" glyph-name="hyphen" horiz-adv-x="472" d="M392 301T392 293T386 279T372 273H100Q92 273 86 279T80 293T86 307T100 313H372Q380 313 386 307Z" />
<glyph unicode="." glyph-name="period" horiz-adv-x="212" d="M147 48T147 31T135 2T107 -11Q90 -11 78 1T65 31Q65 47 77 59T107 71T135 60Z" />
<glyph unicode="/" glyph-name="slash" horiz-adv-x="291" d="M293 777L24 -62Q22 -70 14 -74T-2 -76Q-21 -69 -16 -49L254 790Q256 798 264 802T280 804Q300 797 293 777Z" />
<glyph unicode="0" glyph-name="zero" horiz-adv-x="560" d="M502 256Q502 143 448 67T280 -9Q220 -9 176 13T107 73T70 157T58 256V473Q58 526 70 571T107 655T176 716T280 738Q394 738 448 662T502 473V256ZM460 260V468Q460 570 416 633T280 697Q188 697 144
634T100 468V260Q100 158 144 95T280 32Q371 32 415 95T460 260Z" />
<glyph unicode="1" glyph-name="one" horiz-adv-x="560" d="M474 28T474 20T468 6T454 0H93Q85 0 79 6T73 20T79 34T93 40H289V679L69 526Q53 515 41 531Q30 548 46 559L295 733Q303 738 310 738Q318 738 324 732T331 718V40H454Q462 40 468 34Z" />
<glyph unicode="2" glyph-name="two" horiz-adv-x="560" d="M486 20Q486 12 480 6T466 0H92Q71 0 71 20Q71 127 169 216Q199 243 257 286T350 358T414 434T444 532Q444 605 403 652T283 699Q219 699 173 675Q155 666 143 656T124 640T111 635Q102 635 96 641T89
656T96 671Q166 738 283 738Q382 738 434 680T486 532Q486 476 461 428T396 346T311 277T223 210T152 135T114 41H466Q474 41 480 35T486 20Z" />
<glyph unicode="3" glyph-name="three" horiz-adv-x="560" d="M474 197Q474 110 416 51T254 -9Q190 -9 143 8T50 72Q44 77 44 86Q44 94 50 100T64 106Q70 106 76 101T96 83T126 61Q177 29 254 29Q341 29 387 77T434 197Q434 349 236 355Q215 355 215 374Q215 391
234 395Q264 397 292 405T349 428T396 473T414 543Q414 608 377 654T256 700Q193 700 142 670Q125 660 113 649T96 632T83 626Q74 626 68 632T62 647Q62 652 67 659Q133 738 256 738Q310 738 350 721T411 674T443 612T454 543Q454 421 331 380Q474 340 474 197Z"
/>
<glyph unicode="4" glyph-name="four" horiz-adv-x="560" d="M493 188T493 180T487 166T473 160H397V12Q397 3 391 -3T376 -9Q367 -9 361 -3T355 12V160H85Q77 160 71 165T65 180Q65 186 68 192L305 725Q314 744 333 735Q341 732 344 724T343 708L118 200H355V391Q355
400 361 406T376 412Q384 412 390 406T397 391V200H473Q481 200 487 194Z" />
<glyph unicode="5" glyph-name="five" horiz-adv-x="560" d="M482 213Q482 121 425 56T256 -9Q159 -9 98 40Q91 47 91 56T97 71T112 78Q119 78 125 72Q175 32 256 32Q348 32 394 84T440 213Q440 304 396 350T271 396Q220 396 185 371Q171 361 160 348T142 330T126
324Q105 324 105 345L118 709Q118 718 124 723T139 729H419Q427 729 433 724T439 709Q439 701 433 695T419 689H159L149 394Q199 437 271 437Q371 437 426 379T482 213Z" />
<glyph unicode="6" glyph-name="six" horiz-adv-x="560" d="M487 214Q487 112 430 52T277 -9Q184 -9 127 60T70 257Q70 381 141 503T318 731Q326 737 333 737Q342 737 348 731T354 715Q354 707 348 701Q186 543 134 385Q200 432 276 432Q367 432 427 376T487 214ZM445
214Q445 302 398 347T276 392Q194 392 118 325Q112 292 112 257Q112 144 158 88T277 31Q354 31 399 79T445 214Z" />
<glyph unicode="7" glyph-name="seven" horiz-adv-x="560" d="M489 709Q489 706 485 694L215 4Q207 -15 188 -8Q169 1 176 19L440 689H86Q78 689 72 695T66 709Q66 718 72 723T86 729H468Q489 729 489 709Z" />
<glyph unicode="8" glyph-name="eight" horiz-adv-x="560" d="M511 184Q511 94 447 43T280 -9Q182 -9 116 41T49 184Q49 225 63 257T104 312T158 349T225 380Q158 408 121 447T84 553Q84 642 141 689T280 737Q363 737 418 689T474 553Q474 488 438 449T336 381Q376
366 402 352T456 315T497 260T511 184ZM432 553Q432 621 390 659T280 697Q213 697 170 660T126 553Q126 494 165 461T279 401Q353 430 392 463T432 553ZM469 184Q469 215 458 240T432 282T388 314T339 338T282 359Q234 340 210 329T153 297T106 248T91 184Q91 113
143 72T280 31Q368 31 418 73T469 184Z" />
<glyph unicode="9" glyph-name="nine" horiz-adv-x="560" d="M496 471Q496 347 425 224T247 -3Q241 -9 233 -9Q224 -9 218 -3T211 13Q211 21 218 27Q381 188 432 343Q364 296 289 296Q198 296 139 352T79 514Q79 617 136 677T288 737Q382 737 439 668T496 471ZM454
471Q454 584 408 640T288 697Q212 697 167 649T121 514Q121 426 168 381T289 336Q374 336 447 403Q454 435 454 471Z" />
<glyph unicode=":" glyph-name="colon" horiz-adv-x="212" d="M147 454Q147 437 135 425T107 412Q90 412 78 424T65 454Q65 470 77 482T107 494T135 482T147 454ZM147 48T147 31T135 2T107 -11Q90 -11 78 1T65 31Q65 47 77 59T107 71T135 60Z" />
<glyph unicode=";" glyph-name="semicolon" horiz-adv-x="212" d="M150 16Q150 -34 127 -65T83 -96Q70 -96 70 -84Q70 -76 88 -56T107 -11Q90 -11 78 1T66 31T78 61T107 73Q127 73 138 57T150 16ZM147 454Q147 437 135 425T107 412Q90 412 78 424T65 454Q65 470
77 482T107 494T135 482T147 454Z" />
<glyph unicode="&lt;" glyph-name="less" horiz-adv-x="533" d="M470 66Q461 49 443 58L71 256Q60 262 60 274Q60 287 71 292L443 490Q461 499 470 482Q479 464 462 455L122 274L462 93Q479 84 470 66Z" />
<glyph unicode="=" glyph-name="equal" horiz-adv-x="569" d="M484 356T484 348T478 334T464 328H105Q97 328 91 334T85 348T91 362T105 368H464Q472 368 478 362ZM484 197T484 189T478 175T464 169H105Q97 169 91 175T85 189T91 203T105 209H464Q472 209 478 203Z" />
<glyph unicode="&gt;" glyph-name="greater" horiz-adv-x="533" d="M473 274Q473 262 462 256L90 58Q72 49 63 66Q54 84 71 93L411 274L71 455Q54 464 63 482Q72 499 90 490L462 292Q473 287 473 274Z" />
<glyph unicode="?" glyph-name="question" horiz-adv-x="485" d="M425 547Q425 502 410 467T374 411T308 353Q256 310 241 278T226 206Q226 185 205 185Q197 185 191 190T184 206Q184 256 202 296T281 385Q342 435 362 465T383 547Q383 620 338 659T233 698Q136
698 82 639Q76 632 66 632Q59 632 52 638T45 653Q45 665 76 691Q136 738 233 738Q306 738 365 689T425 547ZM246 48T246 31T234 2T206 -11Q189 -11 177 1T164 31Q164 47 176 59T206 71Q222 71 234 60Z" />
<glyph unicode="@" glyph-name="at" horiz-adv-x="834" d="M764 385Q764 293 714 224T587 155Q514 155 494 231Q442 157 359 157Q307 157 282 194T256 285Q256 364 306 433T438 502Q496 502 550 483Q569 477 564 455L543 362Q530 305 530 274Q530 196 587 196Q642
196 682 251T723 385Q723 434 708 477T661 559T568 620T424 643Q349 643 288 614T189 535T131 427T111 304Q111 244 126 193T174 101T264 36T400 12Q448 12 503 23Q533 30 536 30Q556 30 556 8Q556 -7 540 -11Q468 -29 400 -29Q313 -29 247 -2T144 73T88 179T70
304Q70 359 84 413T127 516T197 602T296 662T424 684Q515 684 583 659T689 589T746 494T764 385ZM521 449Q480 462 438 462Q377 462 337 407T297 285Q297 244 313 222T359 199Q413 199 449 240T497 338L521 449Z" />
<glyph unicode="A" glyph-name="A" horiz-adv-x="556" d="M539 17Q542 6 535 -1T518 -9Q502 -9 498 7Q478 82 446 188H108Q90 129 56 7Q52 -9 37 -9Q27 -9 21 -2T17 17Q110 362 252 711Q262 737 278 737Q293 737 304 711Q446 362 539 17ZM433 230Q366 444 277
664Q188 444 121 230H433Z" />
<glyph unicode="B" glyph-name="B" horiz-adv-x="620" d="M557 185Q557 96 506 48T336 0H109Q100 0 94 6T88 21V708Q88 716 94 722T109 729H318Q421 729 472 681T524 552V520Q524 414 422 375Q557 337 557 212V185ZM482 520V552Q482 614 443 651T318 688H130V390H255Q367
390 424 419T482 520ZM515 185V212Q515 279 462 314T314 350H130V41H336Q438 41 476 78T515 185Z" />
<glyph unicode="C" glyph-name="C" horiz-adv-x="551" d="M507 83Q507 75 501 69Q434 -9 314 -9Q70 -9 70 302V426Q70 569 130 653T320 738Q439 738 499 662Q504 657 504 649Q504 630 483 628Q477 628 473 631T462 641T451 653Q403 698 320 698Q112 698 112 426V302Q112
165 159 98T314 31Q397 31 451 78Q456 82 463 90T476 101T487 104Q496 105 501 98T507 83Z" />
<glyph unicode="D" glyph-name="D" horiz-adv-x="636" d="M566 271Q566 234 561 201T540 130T497 64T422 19T310 0H109Q100 0 94 6T88 21V708Q88 716 94 722T109 729H310Q374 729 422 711T496 665T539 599T561 527T566 457V271ZM524 272V456Q524 688 310 688H130V40H310Q524
40 524 272Z" />
<glyph unicode="E" glyph-name="E" horiz-adv-x="542" d="M500 20Q500 12 494 6T480 0H108Q100 0 94 6T88 20V708Q88 716 94 722T108 729H464Q472 729 478 723T485 708T479 694T464 688H130V384H435Q443 384 449 378T455 364T449 350T435 344H130V41H480Q488 41
494 35T500 20Z" />
<glyph unicode="F" glyph-name="F" horiz-adv-x="488" d="M476 716T476 708T470 694T455 688H130V384H404Q412 384 418 378T424 364T418 350T404 344H130V12Q130 3 124 -3T109 -9T94 -3T88 12V708Q88 716 94 722T108 729H455Q463 729 469 723Z" />
<glyph unicode="G" glyph-name="G" horiz-adv-x="602" d="M540 238Q540 123 482 57T314 -9Q70 -9 70 302V427Q70 570 131 654T321 738Q441 738 500 662Q505 655 505 649Q505 630 484 628Q478 628 474 631T463 641T451 653Q403 698 321 698Q112 698 112 427V302Q112
165 159 98T314 31Q404 31 451 84T499 238V313H326Q318 313 312 318T306 333Q306 341 312 347T326 353H519Q527 353 533 347T540 332V238Z" />
<glyph unicode="H" glyph-name="H" horiz-adv-x="662" d="M574 12Q574 3 568 -3T553 -9Q544 -9 538 -3T532 12V337H130V12Q130 3 124 -3T109 -9T94 -3T88 12V717Q88 725 94 731T109 738T124 732T130 717V379H532V717Q532 725 538 731T553 738Q561 738 567 732T574
717V12Z" />
<glyph unicode="I" glyph-name="I" horiz-adv-x="218" d="M130 12Q130 3 124 -3T109 -9T94 -3T88 12V717Q88 725 94 731T109 738T124 732T130 717V12Z" />
<glyph unicode="J" glyph-name="J" horiz-adv-x="412" d="M334 249Q334 120 280 56T108 -9Q61 -9 22 1Q6 5 6 21Q6 42 26 42Q29 42 38 40T59 36Q80 32 108 32Q206 32 249 83T292 249V717Q292 725 298 731T313 738Q321 738 327 732T334 717V249Z" />
<glyph unicode="K" glyph-name="K" horiz-adv-x="540" d="M517 23Q524 11 517 1T498 -9Q487 -9 481 1Q352 213 232 378L130 254V12Q130 3 124 -3T109 -9T94 -3T88 12V717Q88 725 94 731T109 738T124 732T130 717V313L469 730Q477 738 486 738Q492 738 499 733Q515
720 502 703L259 410Q400 216 517 23Z" />
<glyph unicode="L" glyph-name="L" horiz-adv-x="504" d="M500 20Q500 12 494 6T480 0H108Q100 0 94 6T88 20V717Q88 725 94 731T109 738T124 732T130 717V41H480Q488 41 494 35T500 20Z" />
<glyph unicode="M" glyph-name="M" horiz-adv-x="765" d="M677 11Q677 3 671 -3T657 -9T643 -3T637 11V639L401 135Q396 123 381 123Q367 123 362 136L127 638V11Q127 3 122 -3T108 -9T94 -3T88 11V718Q88 738 110 738Q124 738 130 725L383 182L636 725Q642 738
655 738Q665 738 671 732T677 718V11Z" />
<glyph unicode="N" glyph-name="N" horiz-adv-x="664" d="M576 11Q576 -9 554 -9Q541 -9 534 2L128 653V11Q128 3 122 -3T108 -9T94 -3T88 11V718Q88 738 109 738Q123 738 131 725L536 75V718Q536 726 542 732T556 738T570 732T576 718V11Z" />
<glyph unicode="O" glyph-name="O" horiz-adv-x="618" d="M548 261Q548 207 536 161T497 76T422 14T309 -9T196 13T122 75T83 161T70 261V468Q70 522 82 568T121 653T196 715T309 738T422 716T496 654T535 568T548 468V261ZM506 261V468Q506 570 459 634T309 698T159
634T112 468V261Q112 159 159 95T309 31T459 95T506 261Z" />
<glyph unicode="P" glyph-name="P" horiz-adv-x="580" d="M534 491Q534 409 475 358T315 307H130V12Q130 3 124 -3T109 -9T94 -3T88 12V708Q88 716 94 722T109 729H302Q419 729 476 674T534 541V491ZM492 491V541Q492 600 447 644T302 689H130V347H315Q400 347
446 387T492 491Z" />
<glyph unicode="Q" glyph-name="Q" horiz-adv-x="618" d="M567 -20Q554 -37 537 -23L465 42Q404 -9 309 -9Q244 -9 196 13T122 75T83 161T70 261V468Q70 522 82 568T121 653T196 715T309 738T422 716T496 654T535 568T548 468V261Q548 144 493 72L565 9Q581 -6
567 -20ZM506 261V468Q506 570 459 634T309 698T159 634T112 468V261Q112 159 159 95T309 31Q387 31 435 70L384 116Q368 131 381 146Q395 160 410 146L462 99Q506 160 506 261Z" />
<glyph unicode="R" glyph-name="R" horiz-adv-x="591" d="M536 22Q542 11 535 1T517 -9Q504 -9 499 2Q411 165 307 318H130V12Q130 3 124 -3T109 -9T94 -3T88 12V708Q88 716 94 722T109 729H302Q419 729 476 677T533 551V505Q533 440 489 388T355 322Q453 176
536 22ZM491 505V551Q491 607 447 648T302 689H130V358H304Q402 358 446 403T491 505Z" />
<glyph unicode="S" glyph-name="S" horiz-adv-x="569" d="M515 203Q515 105 449 48T263 -9Q145 -9 69 27Q57 33 57 45Q57 53 63 60T77 67Q83 67 92 63T121 51T168 38Q216 30 263 30Q367 30 420 77T473 203Q473 301 377 332Q354 340 269 354T148 385Q56 425 56
537Q56 629 116 683T276 738Q380 738 447 705Q459 699 459 687Q459 678 453 672T438 665Q434 665 425 669T398 680T357 691Q320 698 276 698Q194 698 146 654T98 537Q98 440 198 411Q210 407 312 389T452 343Q515 300 515 203Z" />
<glyph unicode="T" glyph-name="T" horiz-adv-x="543" d="M538 716T538 708T532 694T518 688H293V12Q293 3 287 -3T272 -9Q263 -9 257 -3T251 12V688H25Q17 688 11 694T5 708T11 722T25 729H518Q526 729 532 723Z" />
<glyph unicode="U" glyph-name="U" horiz-adv-x="618" d="M548 237Q548 129 488 60T309 -9T131 60T70 237V717Q70 725 76 731T91 738T106 732T112 717V236Q112 143 161 87T309 31T456 87T506 236V717Q506 725 512 731T527 738Q536 738 542 732T548 717V237Z" />
<glyph unicode="V" glyph-name="V" horiz-adv-x="557" d="M541 713Q452 413 299 10Q292 -9 278 -9Q261 -9 254 10Q114 382 16 711Q12 722 19 730T37 738Q52 738 56 722Q151 403 279 61Q416 427 504 724Q508 738 522 738Q532 738 538 731T541 713Z" />
<glyph unicode="W" glyph-name="W" horiz-adv-x="849" d="M829 718V712Q755 397 645 16Q637 -9 618 -9Q598 -9 591 16Q490 365 425 647Q357 358 258 16Q253 -9 232 -9T205 16Q101 372 21 712Q20 714 20 718Q20 727 26 732T42 738Q58 738 62 721Q131 420 232 70Q315
359 398 713Q404 738 425 738T452 713Q525 394 617 70Q716 413 788 721Q792 738 808 738Q817 738 823 733T829 718Z" />
<glyph unicode="X" glyph-name="X" horiz-adv-x="534" d="M526 12Q526 3 520 -3T504 -9Q493 -9 486 2Q376 188 267 344Q152 179 47 2Q42 -9 30 -9Q21 -9 15 -3T8 12Q8 17 11 23Q107 186 241 381Q132 539 40 706Q38 710 38 718T44 732T59 738Q71 738 77 726Q168
561 267 417Q366 561 457 726Q463 738 475 738Q483 738 489 732T496 718Q496 712 493 706Q401 539 292 381Q424 192 523 23Q526 17 526 12Z" />
<glyph unicode="Y" glyph-name="Y" horiz-adv-x="481" d="M481 717Q481 715 479 709Q403 529 261 265V12Q261 3 255 -3T240 -9T225 -3T219 12V266Q81 522 2 708Q0 714 0 717Q0 726 6 732T22 738Q35 738 41 725Q108 564 240 315Q366 550 441 725Q447 738 459 738Q468
738 474 732T481 717Z" />
<glyph unicode="Z" glyph-name="Z" horiz-adv-x="481" d="M466 20Q466 12 460 6T445 0H32Q11 0 11 20Q11 26 18 40L407 688H33Q25 688 19 694T13 708T19 722T33 729H444Q465 729 465 708Q465 704 459 692L67 41H445Q454 41 460 35T466 20Z" />
<glyph unicode="[" glyph-name="bracketleft" horiz-adv-x="218" d="M173 -164Q173 -172 167 -178T152 -184H70Q62 -184 56 -178T50 -164V802Q50 811 56 817T70 823H152Q161 823 167 817T173 802T167 788T152 782H92V-143H152Q161 -143 167 -149T173 -164Z" />
<glyph unicode="\" glyph-name="backslash" horiz-adv-x="341" d="M349 -33Q356 -50 337 -60Q318 -67 309 -48L-3 774Q-10 794 9 801Q29 808 36 789L349 -33Z" />
<glyph unicode="]" glyph-name="bracketright" horiz-adv-x="218" d="M168 -164Q168 -172 162 -178T147 -184H65Q57 -184 51 -178T45 -164Q45 -155 51 -149T65 -143H126V782H65Q57 782 51 788T45 802T51 816T65 823H147Q156 823 162 817T168 802V-164Z" />
<glyph unicode="^" glyph-name="asciicircum" horiz-adv-x="478" d="M428 455Q439 437 422 426Q404 415 393 432L239 680L86 432Q73 415 57 426Q39 437 50 455L217 723Q225 738 239 738Q252 738 262 723L428 455Z" />
<glyph unicode="_" glyph-name="underscore" horiz-adv-x="458" d="M478 -131Q478 -139 472 -145T458 -151H0Q-8 -151 -14 -145T-20 -131Q-20 -122 -14 -116T0 -110H458Q466 -110 472 -116T478 -131Z" />
<glyph unicode="`" glyph-name="grave" horiz-adv-x="530" d="M207 798Q213 801 219 801Q232 801 238 790L331 626Q334 621 334 616Q334 604 324 599Q320 596 314 596Q302 596 296 606L199 768Q196 772 196 779Q196 792 207 798Z" />
<glyph unicode="a" glyph-name="a" horiz-adv-x="475" d="M433 14Q433 5 427 0T413 -6Q390 -6 371 15Q357 28 351 54Q308 -6 209 -6Q120 -6 80 33T39 133V141Q39 201 80 240T210 279H348V309Q348 389 322 423T218 458Q150 458 104 429Q93 422 83 428T73 445T83
463Q137 496 218 496Q316 496 352 449T388 309V102Q388 68 394 54T417 34Q433 29 433 14ZM348 240H210Q79 240 79 141V133Q79 34 209 34Q276 34 312 67T348 166V240Z" />
<glyph unicode="b" glyph-name="b" horiz-adv-x="493" d="M436 188Q436 -6 257 -6Q185 -6 119 39Q114 26 104 15Q83 -6 61 -6Q53 -6 48 -1T42 14Q42 29 57 34Q75 40 81 53T87 102V704Q87 712 93 718T107 724T121 718T127 704V441Q188 496 266 496Q436 496 436
295V188ZM396 188V295Q396 377 366 417T266 458Q181 458 127 387V82Q185 33 257 33Q396 33 396 188Z" />
<glyph unicode="c" glyph-name="c" horiz-adv-x="404" d="M372 52Q382 33 365 24Q313 -6 243 -6Q151 -6 104 53T57 211V280Q57 372 105 434T243 496Q315 496 363 467Q382 456 368 438Q357 425 341 434Q301 456 243 456Q174 456 136 408T97 280V211Q97 126 134
80T243 34Q300 34 344 58Q361 67 372 52Z" />
<glyph unicode="d" glyph-name="d" horiz-adv-x="493" d="M451 14Q451 5 446 0T432 -6Q410 -6 389 15Q376 28 372 44Q306 -6 235 -6Q140 -6 99 42T57 185V285Q57 381 99 438T232 496Q308 496 366 448V704Q366 712 372 718T386 724T400 718T406 704V102Q406 67
412 54T436 34Q451 29 451 14ZM366 88V397Q311 458 232 458Q97 458 97 285V185Q97 107 129 70T236 33Q304 33 366 88Z" />
<glyph unicode="e" glyph-name="e" horiz-adv-x="473" d="M424 293L423 253Q423 233 404 233H97V199Q97 34 240 34Q327 34 378 69Q394 79 406 63Q417 48 400 35Q338 -6 240 -6Q147 -6 102 51T57 199V292Q57 383 101 439T240 496Q424 496 424 293ZM383 293Q383
373 351 415T240 458Q97 458 97 292V271H383V293Z" />
<glyph unicode="f" glyph-name="f" horiz-adv-x="261" d="M296 712T296 704T290 690T275 684H251Q171 684 147 650T122 524V490H225Q233 490 239 484T245 470T239 456T225 450H122V14Q122 6 116 0T102 -6T88 0T82 14V450H40Q32 450 26 456T20 470T26 484T40 490H82V524Q82
574 88 607T111 668T162 710T251 724H275Q284 724 290 718Z" />
<glyph unicode="g" glyph-name="g" horiz-adv-x="483" d="M407 29Q407 -183 226 -183Q152 -183 94 -158Q82 -153 82 -140Q82 -129 90 -123T110 -121Q161 -143 226 -143Q303 -143 335 -99T367 29V59Q303 11 227 11Q57 11 57 204V297Q57 388 98 442T230 497Q305
497 367 444V477Q367 485 373 491T387 497T401 491T407 477V29ZM367 106V392Q310 457 230 457Q97 457 97 297V206Q97 128 127 90T227 51Q259 51 298 64T367 106Z" />
<glyph unicode="h" glyph-name="h" horiz-adv-x="507" d="M433 14Q433 6 427 0T413 -6T399 0T393 14V320Q393 389 367 423T274 457Q160 457 115 371V14Q115 6 109 0T95 -6T81 0T75 14V704Q75 712 81 718T95 724T109 718T115 704V433Q169 496 274 496Q433 496 433 320V14Z" />
<glyph unicode="i" glyph-name="i" horiz-adv-x="190" d="M122 682T122 671T114 652T95 644T76 652T68 671T76 690T95 699T114 691ZM115 14Q115 6 109 0T95 -6T81 0T75 14V476Q75 485 81 490T95 496T109 491T115 476V14Z" />
<glyph unicode="j" glyph-name="j" horiz-adv-x="190" d="M122 682T122 671T114 652T95 644T76 652T68 671T76 690T95 699T114 691ZM115 -23Q115 -106 83 -144T-15 -183Q-35 -183 -35 -163T-15 -143Q32 -143 53 -118T75 -23V476Q75 485 81 490T95 496T109 491T115
476V-23Z" />
<glyph unicode="k" glyph-name="k" horiz-adv-x="426" d="M408 24Q414 13 408 4T390 -6T373 4Q305 131 198 268L115 182V14Q115 6 109 0T95 -6T81 0T75 14V704Q75 712 81 718T95 724T109 718T115 704V235L362 491Q376 503 389 491Q403 477 389 465L226 297Q335
158 408 24Z" />
<glyph unicode="l" glyph-name="l" horiz-adv-x="202" d="M160 14Q160 5 155 0T141 -6Q117 -6 98 15Q72 40 72 84V704Q72 712 78 718T92 724T106 718T112 704V102Q112 68 119 54T145 34Q160 29 160 14Z" />
<glyph unicode="m" glyph-name="m" horiz-adv-x="809" d="M735 14Q735 6 729 0T715 -6T701 0T695 14V320Q695 389 670 423T580 458Q471 458 429 370Q433 349 433 320V14Q433 6 427 0T413 -6T399 0T393 14V320Q393 389 368 423T278 458Q172 458 130 379V14Q130
6 124 0T110 -6T96 0T90 14V382Q90 416 83 430T57 451Q42 456 42 470Q42 490 61 490Q83 490 105 470Q120 455 125 436Q179 496 278 496Q382 496 415 420Q467 496 580 496Q666 496 700 449T735 320V14Z" />
<glyph unicode="n" glyph-name="n" horiz-adv-x="523" d="M449 14Q449 6 443 0T428 -6Q420 -6 414 0T408 14V320Q408 389 383 423T290 458Q177 458 130 371V14Q130 6 124 0T110 -6T96 0T90 14V382Q90 416 83 430T57 451Q42 456 42 470Q42 490 61 490Q83 490 105
470Q122 453 127 429Q180 496 290 496Q448 496 448 320L449 14Z" />
<glyph unicode="o" glyph-name="o" horiz-adv-x="489" d="M432 195Q432 106 386 50T244 -6T103 50T57 195V295Q57 385 102 440T244 496T386 441T432 295V195ZM392 195V295Q392 456 244 456Q97 456 97 295V195Q97 34 244 34Q392 34 392 195Z" />
<glyph unicode="p" glyph-name="p" horiz-adv-x="493" d="M436 205Q436 109 394 52T261 -6Q187 -6 127 42V-163Q127 -171 121 -177T107 -183T93 -177T87 -163V388Q87 423 81 436T57 457Q42 462 42 476Q42 496 61 496Q82 496 104 476Q116 464 121 447Q187 496 258
496Q353 496 394 448T436 306V205ZM396 205V306Q396 384 364 421T257 458Q190 458 127 403V93Q182 33 261 33Q396 33 396 205Z" />
<glyph unicode="q" glyph-name="q" horiz-adv-x="493" d="M451 476Q451 462 436 457Q418 450 412 437T406 388V-163Q406 -171 400 -177T386 -183T372 -177T366 -163V49Q305 -6 227 -6Q57 -6 57 195V302Q57 496 236 496Q310 496 374 451Q379 466 389 476Q411 496
432 496Q451 496 451 476ZM366 408Q308 458 236 458Q97 458 97 302V195Q97 114 127 74T227 33Q313 33 366 104V408Z" />
<glyph unicode="r" glyph-name="r" horiz-adv-x="355" d="M352 467Q352 447 332 447Q326 447 308 451T267 456Q152 456 130 333V14Q130 6 124 0T110 -6T96 0T90 14V382Q90 416 83 430T57 451Q42 456 42 470Q42 490 63 490Q89 490 107 469T128 423Q173 496 267
496Q352 496 352 467Z" />
<glyph unicode="s" glyph-name="s" horiz-adv-x="408" d="M365 137Q365 70 321 32T193 -6Q109 -6 54 16Q34 24 43 43Q51 61 69 53Q120 33 193 33Q325 33 325 137Q325 157 317 172T301 196T270 213T237 223T197 231Q187 233 182 234Q150 240 130 247T88 267T54
303T43 360Q43 423 86 459T199 496T318 475Q337 468 327 447Q319 430 302 438Q258 458 199 458Q144 458 114 431T83 360Q83 340 91 326T108 303T140 287T174 276T214 268T258 259T298 245T333 223T355 188T365 137Z" />
<glyph unicode="t" glyph-name="t" horiz-adv-x="293" d="M280 28T280 20T274 6T260 0H238Q146 0 116 49T85 201V450H44Q36 450 30 456T24 470T30 484T44 490H85V628Q85 636 91 642T105 648Q114 648 119 642T125 628V490H234Q242 490 248 484T254 470T248 456T234
450H125L126 201Q126 108 147 74T238 40H260Q268 40 274 34Z" />
<glyph unicode="u" glyph-name="u" horiz-adv-x="523" d="M481 14Q481 5 475 0T461 -6Q437 -6 418 15Q399 32 394 60Q341 -6 233 -6Q74 -6 74 171V476Q74 485 80 490T94 496T108 491T114 476V171Q114 102 139 68T233 34Q351 34 392 126V476Q392 485 398 490T412
496T426 490T432 476V102Q432 68 439 54T465 34Q481 29 481 14Z" />
<glyph unicode="v" glyph-name="v" horiz-adv-x="429" d="M406 470Q329 239 239 14Q231 -6 213 -6T187 14Q92 258 23 470Q19 481 26 488T43 496Q57 496 61 483Q128 278 213 56Q303 285 367 483Q373 496 386 496Q397 496 403 489T406 470Z" />
<glyph unicode="w" glyph-name="w" horiz-adv-x="686" d="M661 471Q588 218 519 11Q514 -6 495 -6Q477 -6 471 11Q414 179 343 422Q280 203 215 11Q209 -6 191 -6Q172 -6 167 11Q96 228 26 471Q23 482 29 489T46 496Q61 496 64 482Q133 244 192 65Q260 270 319
480Q324 496 344 496T367 480Q439 230 495 65Q570 297 622 482Q626 496 641 496Q651 496 657 489T661 471Z" />
<glyph unicode="x" glyph-name="x" horiz-adv-x="431" d="M399 24Q405 13 399 4T381 -6T364 5Q318 90 215 221Q107 81 67 5Q62 -6 50 -6Q39 -6 33 3T32 24Q76 106 190 254Q88 388 46 467Q40 478 47 487T65 496T82 486Q125 404 215 286Q308 408 349 486Q355 496
366 496T384 487T385 467Q338 379 240 254Q353 110 399 24Z" />
<glyph unicode="y" glyph-name="y" horiz-adv-x="434" d="M413 470L272 66Q226 -67 171 -125T32 -183Q12 -183 12 -163T32 -143Q85 -143 124 -114T198 -12Q85 265 18 470Q14 481 20 488T37 496Q52 496 56 483Q118 295 220 39L375 483Q379 496 393 496Q404 496
410 489T413 470Z" />
<glyph unicode="z" glyph-name="z" horiz-adv-x="404" d="M384 470Q384 466 380 458L78 40H364Q372 40 378 34T384 20T378 6T364 0H41Q21 0 21 20Q21 28 25 32L326 450H61Q53 450 47 456T41 470T47 484T61 490H365Q373 490 378 485T384 470Z" />
<glyph unicode="{" glyph-name="braceleft" horiz-adv-x="249" d="M214 -163Q214 -184 193 -184H187Q135 -184 106 -141T77 -30Q77 9 98 83T119 198Q119 250 99 274T57 299H51Q30 299 30 320Q30 340 51 340H57Q78 340 98 364T119 441Q119 481 98 555T77 669Q77
736 106 779T187 823H193Q214 823 214 802Q214 782 193 782H187Q158 782 139 752T119 669Q119 631 139 556T159 441Q159 356 106 321V318Q159 283 159 198Q159 158 139 83T119 -30Q119 -83 138 -113T187 -143H193Q214 -143 214 -163Z" />
<glyph unicode="|" glyph-name="bar" horiz-adv-x="192" d="M117 -162Q117 -171 111 -177T96 -183T81 -177T75 -162V804Q75 812 81 818T96 825T111 819T117 804V-162Z" />
<glyph unicode="}" glyph-name="braceright" horiz-adv-x="249" d="M219 320Q219 299 198 299H192Q171 299 151 275T130 198Q130 158 150 84T171 -30Q171 -97 143 -140T62 -184H56Q35 -184 35 -163Q35 -143 56 -143H62Q91 -143 110 -113T129 -30Q129 8 110 83T90
198Q90 283 143 318V321Q90 356 90 441Q90 481 109 556T129 669Q129 722 110 752T62 782H56Q35 782 35 802Q35 823 56 823H62Q114 823 142 780T171 669Q171 630 151 556T130 441Q130 389 150 365T192 340H198Q219 340 219 320Z" />
<glyph unicode="~" glyph-name="asciitilde" horiz-adv-x="461" d="M396 277Q396 259 369 244T304 229Q270 229 227 249T160 270Q131 270 112 257T87 244Q77 244 71 250T65 266Q65 284 92 298T157 313Q190 313 233 293T301 272Q330 272 349 285T374 299Q383 299
389 293T396 277Z" />
</font>
</defs>
</svg>
