<?xml version="1.0" standalone="no"?> <!DOCTYPE svg PUBLIC "-//W3C//DTD SVG 1.0//EN" "http://www.w3.org/TR/2001/REC-SVG-20010904/DTD/svg10.dtd" > <svg xmlns="http://www.w3.org/2000/svg" width="100%" height="100%">
<defs >
<font id="ChevinStd-Medium" horiz-adv-x="428" ><font-face
    font-family="ChevinStd-Medium"
    units-per-em="1000"
    panose-1="2 15 6 0 0 0 0 0 0 0"
    ascent="750"
    descent="-250"
    alphabetic="0" />
<missing-glyph horiz-adv-x="1000" />
<glyph unicode=" " glyph-name="space" horiz-adv-x="295" />
<glyph unicode="!" glyph-name="exclam" horiz-adv-x="279" d="M192 687L182 247Q179 204 144 204Q110 204 107 247L97 687Q96 708 108 723T144 738Q168 738 181 723T192 687ZM208 55Q208 28 189 9T144 -10Q117 -10 98 9T79 55Q79 81 98 100T144 119Q170 119 189
100T208 55Z" />
<glyph unicode="&quot;" glyph-name="quotedbl" horiz-adv-x="358" d="M307 688L299 564Q296 525 264 525Q231 525 228 564L219 688Q217 708 229 723T264 738T298 723T307 688ZM132 688L123 564Q120 525 88 525Q57 525 52 564L44 688Q42 708 53 723T88 738T122
723T132 688Z" />
<glyph unicode="#" glyph-name="numbersign" horiz-adv-x="744" d="M711 504Q711 487 699 475T670 463H557L527 264H627Q644 264 656 252T668 223T656 194T627 182H514L491 25Q488 8 475 -2T444 -9Q427 -7 417 7T409 38L431 182H250L226 25Q224 8 210 -2T179 -9Q162
-7 152 7T144 38L166 182H65Q48 182 36 194T24 223T36 252T65 264H178L209 463H108Q91 463 79 475T67 504T79 533T108 545H221L245 703Q248 720 262 730T293 738Q310 735 319 721T327 690L305 545H486L510 703Q512 720 526 730T557 738Q574 735 584 721T592 690L570
545H670Q686 545 698 533T711 504ZM473 463H292L262 264H444L473 463Z" />
<glyph unicode="$" glyph-name="dollar" horiz-adv-x="560" d="M521 214Q521 118 464 61T305 -7V-74Q305 -89 294 -100T268 -111Q252 -111 242 -100T231 -74V-9Q133 -6 69 22Q40 34 40 63Q40 80 51 93T80 106Q88 106 113 96T165 81Q205 72 254 72Q342 72 386 108T431
207Q431 251 408 275T334 314Q318 319 241 335T131 367Q42 412 42 523Q42 610 93 665T231 734V803Q231 818 242 829T268 840T294 829T305 803V737Q387 735 444 710Q473 700 473 670Q473 653 462 640T431 627Q423 627 401 635T357 648Q324 655 282 655Q212 655 172
622T132 531Q132 486 156 463T231 425Q250 420 299 411T386 392T449 365Q521 318 521 214Z" />
<glyph unicode="%" glyph-name="percent" horiz-adv-x="566" d="M275 563Q275 512 244 482T166 452Q118 452 87 482T56 563V627Q56 678 87 708T166 738Q213 738 244 708T275 627V563ZM437 699L183 9Q179 -2 168 -7T146 -8T130 7T129 30L382 720Q387 731 398 735T420
736T436 721T437 699ZM510 102Q510 51 479 21T400 -9Q353 -9 322 21T291 102V166Q291 217 322 247T400 277Q448 277 479 247T510 166V102ZM217 560V629Q217 655 203 670T166 685T129 670T115 629V560Q115 534 129 520T166 505T203 519T217 560ZM452 99V168Q452
194 438 208T400 223Q378 223 364 209T350 168V99Q350 73 364 59T400 44Q424 44 438 58T452 99Z" />
<glyph unicode="&amp;" glyph-name="ampersand" horiz-adv-x="623" d="M594 33Q594 15 581 3T551 -10Q530 -10 516 9L467 73Q384 -10 259 -10Q159 -10 105 51T50 197Q50 271 91 322T203 417Q129 514 129 580Q129 658 181 698T301 738Q372 738 417 712Q444 697
461 674T479 631Q479 613 467 601T437 589Q424 589 408 607Q398 619 380 632Q343 660 302 660Q269 660 244 638T218 576Q218 567 220 558T227 539T235 522T247 502T259 486T272 468T284 453L467 215Q494 268 497 338Q499 355 511 366T540 377T569 365T582 334Q580
291 565 237T523 141L584 61Q594 48 594 33ZM416 139L253 353Q135 287 135 199Q135 143 169 107T264 71Q356 71 416 139Z" />
<glyph unicode="&apos;" glyph-name="quotesingle" horiz-adv-x="189" d="M138 688L129 564Q126 525 95 525Q62 525 59 564L50 688Q48 708 60 723T95 738T129 723T138 688Z" />
<glyph unicode="(" glyph-name="parenleft" horiz-adv-x="296" d="M245 -136Q245 -156 233 -168T202 -181Q179 -181 166 -160Q46 32 46 321T166 802Q180 824 202 824Q220 824 232 811T245 779Q245 765 237 747Q136 570 136 321T237 -105Q245 -121 245 -136Z" />
<glyph unicode=")" glyph-name="parenright" horiz-adv-x="296" d="M250 609T250 321T131 -160Q117 -181 94 -181Q76 -181 64 -169T51 -136Q51 -118 59 -105Q160 70 160 321T59 747Q51 762 51 779Q51 798 63 811T94 824Q116 824 131 802Q250 609 250 321Z" />
<glyph unicode="*" glyph-name="asterisk" horiz-adv-x="481" d="M425 617T431 599T428 568T403 552L288 522L364 430Q375 419 374 403T358 376Q342 364 328 368T305 387L240 487L176 387Q168 372 154 368T123 376Q107 387 107 403T118 430L193 522L78 552Q62
555 53 568T50 599T71 622T100 621L211 577L204 696Q202 713 211 725T240 737Q260 737 269 725T277 696L270 577L381 621Q395 628 410 623Z" />
<glyph unicode="+" glyph-name="plus" horiz-adv-x="550" d="M488 294T488 277T476 248T447 236H316V105Q316 88 304 76T275 63T246 75T234 105V236H103Q86 236 74 248T62 277T74 306T103 318H234V449Q234 466 246 478T275 490T304 478T316 449V318H447Q464 318 476 306Z" />
<glyph unicode="," glyph-name="comma" horiz-adv-x="251" d="M194 36Q194 -36 156 -80T89 -124Q67 -124 67 -103Q67 -91 79 -80T106 -53T123 -12Q97 -10 80 9T62 54Q62 82 81 101T128 120Q158 120 176 97T194 36Z" />
<glyph unicode="-" glyph-name="hyphen" horiz-adv-x="490" d="M420 310T420 293T408 265T380 253H111Q94 253 82 264T70 293T82 322T111 334H380Q397 334 408 322Z" />
<glyph unicode="." glyph-name="period" horiz-adv-x="255" d="M192 55Q192 28 173 9T128 -10Q101 -10 82 9T63 55Q63 81 82 100T128 119Q154 119 173 100T192 55Z" />
<glyph unicode="/" glyph-name="slash" horiz-adv-x="325" d="M327 751L70 -48Q66 -64 51 -72T19 -75Q3 -70 -5 -55T-8 -23L248 776Q253 792 268 800T300 803T324 783T327 751Z" />
<glyph unicode="0" glyph-name="zero" horiz-adv-x="560" d="M511 254Q511 140 453 66T280 -9T108 65T49 254V475Q49 589 107 663T280 738T452 664T511 475V254ZM421 254V474Q421 558 385 606T280 655T175 607T139 474V254Q139 170 174 122T280 74Q349 74 385
122T421 254Z" />
<glyph unicode="1" glyph-name="one" horiz-adv-x="560" d="M502 43Q502 25 490 13T459 0H103Q85 0 73 12T60 43Q60 60 72 72T103 85H271V615L100 498Q85 488 68 491T41 510Q31 524 34 541T53 569L288 729Q304 738 316 738Q334 738 347 725T361 694V85H459Q477
85 489 73T502 43Z" />
<glyph unicode="2" glyph-name="two" horiz-adv-x="560" d="M496 61T496 43T484 13T453 0H102Q83 0 71 12T59 43Q59 164 165 257Q193 282 244 320T325 382T381 445T406 526Q406 582 374 619T279 656Q225 656 179 633Q166 626 153 616T131 601T113 596Q96 596 83
608T70 639Q70 661 86 672Q161 738 281 738Q387 738 441 676T496 526Q496 473 474 428T417 352T342 289T263 230T196 166T156 86H453Q471 86 483 74Z" />
<glyph unicode="3" glyph-name="three" horiz-adv-x="560" d="M482 199Q482 112 422 52T250 -9Q129 -9 60 59Q46 73 46 91Q46 108 57 119T84 131Q91 131 97 127T117 114T141 97Q183 70 247 70Q316 70 354 109T393 207Q393 331 237 335Q191 335 191 374Q191 395
205 404T238 413Q274 415 304 425T359 462T384 532Q384 585 354 621T257 658Q201 658 157 631Q146 624 134 615T115 601T99 597Q84 597 73 608T62 637Q62 657 81 673Q142 738 260 738Q315 738 357 720T422 672T456 610T467 542Q467 422 351 378Q482 338 482 199Z"
/>
<glyph unicode="4" glyph-name="four" horiz-adv-x="560" d="M512 199T512 182T500 153T471 140H420V35Q420 16 407 4T376 -9T345 3T332 35V140H89Q72 140 60 152T47 182Q47 189 52 204L273 711Q280 728 297 734T331 734T354 710T354 676L158 224H332V360Q332
379 345 391T376 404T407 392T420 360V224H471Q488 224 500 212Z" />
<glyph unicode="5" glyph-name="five" horiz-adv-x="560" d="M490 222Q490 126 431 59T257 -9Q159 -9 97 36Q77 52 77 74Q77 91 89 104T118 118Q132 118 143 108Q193 72 257 72Q330 72 365 114T400 222Q400 296 367 332T273 369Q229 369 193 343Q183 336 172 326T153
311T136 306Q118 306 106 318T93 351L105 687Q106 705 119 717T149 729H410Q427 729 439 717T452 686Q452 669 440 656T410 643H188L180 419Q224 448 279 448Q378 448 434 389T490 222Z" />
<glyph unicode="6" glyph-name="six" horiz-adv-x="560" d="M501 220Q501 115 439 53T276 -9T116 65T57 261T124 502T292 723Q306 737 324 737Q344 737 356 724T369 692Q369 675 356 661Q231 540 182 411Q228 440 283 440Q376 440 438 384T501 220ZM411 150T411
218T374 323T276 361Q212 361 151 313Q147 290 147 261Q147 167 184 120T277 73Q340 73 375 111Z" />
<glyph unicode="7" glyph-name="seven" horiz-adv-x="560" d="M502 686Q502 681 497 661L247 20Q240 3 223 -5T189 -6T164 18T163 52L398 643H92Q75 643 63 656T50 686Q50 704 62 716T92 729H459Q477 729 489 717T502 686Z" />
<glyph unicode="8" glyph-name="eight" horiz-adv-x="560" d="M518 190Q518 101 454 46T281 -9T108 44T42 189Q42 257 81 300T193 378Q138 406 107 445T76 549Q76 639 133 688T279 737T424 687T481 552Q481 498 453 460T366 389Q439 356 478 312T518 190ZM395
543Q395 598 363 627T280 657T196 628T163 545Q163 498 194 471T285 421Q337 445 366 473T395 543ZM428 196Q428 226 417 248T380 288T334 315T275 340Q206 312 169 281T132 198Q132 139 173 106T279 72Q348 72 388 105T428 196Z" />
<glyph unicode="9" glyph-name="nine" horiz-adv-x="560" d="M506 467Q506 346 439 225T271 5Q257 -9 240 -9Q220 -9 207 4T194 36Q194 53 208 67Q332 189 381 317Q335 288 280 288Q187 288 125 345T63 508Q63 613 125 675T287 737Q389 737 447 663T506 467ZM416
467Q416 561 379 608T286 655Q223 655 188 617T153 510T189 405T287 368Q356 368 412 416Q416 439 416 467Z" />
<glyph unicode=":" glyph-name="colon" horiz-adv-x="255" d="M192 446Q192 419 173 400T128 381Q101 381 82 400T63 446Q63 472 82 491T128 510Q154 510 173 491T192 446ZM192 55Q192 28 173 9T128 -10Q101 -10 82 9T63 55Q63 81 82 100T128 119Q154 119 173
100T192 55Z" />
<glyph unicode=";" glyph-name="semicolon" horiz-adv-x="255" d="M192 446Q192 419 173 400T128 381Q101 381 82 400T63 446Q63 472 82 491T128 510Q154 510 173 491T192 446ZM196 36Q196 -36 158 -80T91 -124Q68 -124 68 -103Q68 -91 80 -80T107 -53T124 -12Q98
-10 81 9T64 54Q64 82 83 101T129 120Q159 120 177 97T196 36Z" />
<glyph unicode="&lt;" glyph-name="less" horiz-adv-x="561" d="M492 71Q485 57 470 53T440 56L84 240Q63 251 63 274Q63 298 84 308L440 493Q454 501 469 496T492 477Q500 463 496 448T477 425L184 274L477 123Q491 116 495 101T492 71Z" />
<glyph unicode="=" glyph-name="equal" horiz-adv-x="550" d="M488 398T488 381T476 352T447 340H103Q86 340 74 352T62 381T74 410T103 422H447Q464 422 476 410ZM488 199T488 182T476 153T447 141H103Q86 141 74 153T62 182T74 211T103 223H447Q464 223 476 211Z" />
<glyph unicode="&gt;" glyph-name="greater" horiz-adv-x="561" d="M498 274Q498 251 477 240L121 56Q106 49 91 53T69 71Q61 85 65 100T84 123L377 274L84 425Q70 432 66 447T69 477Q76 491 91 496T121 493L477 308Q498 298 498 274Z" />
<glyph unicode="?" glyph-name="question" horiz-adv-x="490" d="M434 550Q434 489 408 452T325 368Q276 329 262 303T248 243Q248 226 237 215T207 204T177 215T165 246Q165 294 182 329T252 407Q289 437 304 451T332 489T344 543Q344 601 309 629T226 658Q156
658 109 614Q98 606 85 606Q67 606 55 617T43 645Q43 670 80 696Q143 738 234 738Q311 738 372 690T434 550ZM272 55Q272 28 253 9T208 -10Q181 -10 162 9T143 55Q143 81 162 100T208 119Q234 119 253 100T272 55Z" />
<glyph unicode="@" glyph-name="at" horiz-adv-x="828" d="M761 385Q761 291 710 223T577 155Q502 155 477 222Q431 157 355 157Q304 157 279 193T253 283Q253 367 303 434T435 502Q487 502 540 485Q566 477 560 447L538 352Q529 305 529 280Q529 211 581 211T667
262T701 383Q701 487 634 557T422 627Q350 627 292 598T199 521T146 418T128 306Q128 181 193 105T397 28Q443 28 495 37Q537 48 538 48Q551 48 558 40T566 19Q566 -3 537 -11Q465 -29 397 -29Q232 -29 150 64T67 304Q67 374 89 440T154 561T266 650T420 684Q511
684 579 659T686 589T743 494T761 385ZM491 434Q464 442 433 442Q386 442 354 393T321 287Q321 225 367 225Q405 225 431 255T468 334L491 434Z" />
<glyph unicode="A" glyph-name="A" horiz-adv-x="567" d="M552 46Q558 22 544 7T508 -9Q473 -9 464 26Q444 107 425 170H139L100 26Q91 -9 58 -9Q38 -9 24 6T15 46Q94 362 226 689Q246 738 283 738T342 689Q472 369 552 46ZM402 252Q351 418 282 593Q213 418 162
252H402Z" />
<glyph unicode="B" glyph-name="B" horiz-adv-x="631" d="M571 187Q571 0 348 0H128Q109 0 96 13T83 45V684Q83 702 96 715T128 729H327Q436 729 488 679T541 550V520Q541 415 446 375Q505 357 538 315T571 214V187ZM451 511V540Q451 588 421 616T326 644H173V408H282Q451
408 451 511ZM482 195V219Q482 270 443 298T332 327H173V84H347Q421 84 451 113T482 195Z" />
<glyph unicode="C" glyph-name="C" horiz-adv-x="549" d="M510 645Q510 629 499 617T468 603Q462 603 457 605T443 614T430 623Q393 656 326 656Q157 656 157 422V306Q157 185 196 129T321 73Q386 73 433 108Q461 128 472 128Q489 129 500 117T511 89Q511 69 494
56Q433 -9 321 -9Q67 -9 67 305V424Q67 568 129 653T326 738Q437 738 493 676Q510 663 510 645Z" />
<glyph unicode="D" glyph-name="D" horiz-adv-x="646" d="M580 271Q580 234 575 201T554 129T510 64T435 18T323 0H128Q109 0 96 13T83 45V684Q83 702 96 715T128 729H323Q387 729 435 711T510 666T553 600T575 528T580 457V271ZM490 271V456Q490 495 483 525T459
584T406 627T318 643H173V84H318Q370 84 405 99T458 143T483 202T490 271Z" />
<glyph unicode="E" glyph-name="E" horiz-adv-x="554" d="M516 61T516 43T504 13T474 0H126Q108 0 96 12T83 43V686Q83 703 95 716T126 729H459Q477 729 490 716T503 686Q503 668 490 656T459 643H173V406H433Q450 406 462 394T475 364T463 335T433 322H173V86H474Q491
86 503 74Z" />
<glyph unicode="F" glyph-name="F" horiz-adv-x="507" d="M494 686Q494 668 482 656T451 643H173V406H406Q423 406 435 394T447 364T435 335T406 322H173V36Q173 17 160 4T128 -9T96 4T83 36V686Q83 703 95 716T126 729H451Q469 729 481 716T494 686Z" />
<glyph unicode="G" glyph-name="G" horiz-adv-x="615" d="M557 240Q557 128 498 60T321 -9Q67 -9 67 305V424Q67 568 129 653T327 738Q439 738 496 676Q513 661 513 643Q513 627 502 615T471 603Q461 602 431 623Q391 656 327 656Q157 656 157 422V306Q157 185
196 129T321 73Q470 73 470 238V291H350Q333 291 321 303T309 333T321 362T350 375H514Q532 375 544 362T557 330V240Z" />
<glyph unicode="H" glyph-name="H" horiz-adv-x="676" d="M593 36Q593 17 580 4T549 -9Q530 -9 517 4T504 36V317H173V36Q173 17 160 4T128 -9T96 4T83 36V693Q83 711 96 724T128 738T160 725T173 693V399H504V693Q504 711 517 724T549 738Q567 738 580 725T593 693V36Z" />
<glyph unicode="I" glyph-name="I" horiz-adv-x="256" d="M173 36Q173 17 160 4T128 -9T96 4T83 36V693Q83 711 96 724T128 738T160 725T173 693V36Z" />
<glyph unicode="J" glyph-name="J" horiz-adv-x="438" d="M367 259Q367 -9 126 -9Q83 -9 40 -1Q4 6 4 41Q4 59 15 71T46 84Q48 84 78 79Q100 76 126 76Q208 76 242 118T277 259V693Q277 711 290 724T322 738Q340 738 353 725T367 693V259Z" />
<glyph unicode="K" glyph-name="K" horiz-adv-x="569" d="M546 57Q559 32 544 12T504 -9T466 15Q369 189 256 350L173 250V36Q173 17 160 4T128 -9T96 4T83 36V693Q83 711 96 724T128 738T160 725T173 693V371L455 722Q469 738 490 738Q505 738 518 727Q532 716
533 697T524 665L316 419Q443 242 546 57Z" />
<glyph unicode="L" glyph-name="L" horiz-adv-x="523" d="M515 61T515 43T503 13T472 0H126Q108 0 96 12T83 43V693Q83 711 96 724T128 738T160 725T173 693V86H472Q490 86 502 74Z" />
<glyph unicode="M" glyph-name="M" horiz-adv-x="785" d="M702 33Q702 16 690 4T660 -9T631 3T618 33V537L433 143Q421 117 392 117T351 143L166 536V32Q166 15 154 3T124 -9T95 3T83 32V696Q83 714 95 726T126 738Q156 738 170 711L393 243L617 713Q630 738 659
738Q678 738 690 726T702 696V33Z" />
<glyph unicode="N" glyph-name="N" horiz-adv-x="668" d="M585 33Q585 15 573 3T541 -9Q511 -9 498 13L166 552V33Q166 16 154 4T124 -9T95 3T83 33V696Q83 714 95 726T127 738Q157 738 171 713L502 176V696Q502 713 514 725T544 738T573 726T585 696V33Z" />
<glyph unicode="O" glyph-name="O" horiz-adv-x="633" d="M566 261Q566 207 553 161T512 76T434 14T317 -9Q249 -9 199 13T121 75T80 161T67 261V468Q67 522 80 568T121 653T199 715T317 738Q384 738 434 716T512 654T553 568T566 468V261ZM476 261V468Q476 655
317 655Q157 655 157 468V261Q157 73 317 73Q476 73 476 261Z" />
<glyph unicode="P" glyph-name="P" horiz-adv-x="591" d="M549 481Q549 395 491 342T329 289H173V36Q173 17 160 4T128 -9T96 4T83 36V684Q83 702 96 715T128 729H319Q437 729 493 671T549 532V481ZM460 483V531Q460 577 426 610T313 644H173V371H326Q393 371
426 402T460 483Z" />
<glyph unicode="Q" glyph-name="Q" horiz-adv-x="633" d="M584 -20Q573 -33 558 -34T527 -22L467 34Q408 -9 317 -9Q249 -9 199 13T121 75T80 161T67 261V468Q67 522 80 568T121 653T199 715T317 738Q384 738 434 716T512 654T553 568T566 468V261Q566 157 522
91L582 37Q596 24 596 9T584 -20ZM477 261V468Q477 655 317 655T157 468V261Q157 73 317 73Q368 73 403 97L371 127Q359 138 359 152T371 178Q380 188 393 190T417 183L450 155Q477 195 477 261Z" />
<glyph unicode="R" glyph-name="R" horiz-adv-x="606" d="M552 55Q564 30 549 11T510 -9Q482 -9 471 17Q392 169 307 301H173V36Q173 17 160 4T128 -9T96 4T83 36V684Q83 702 96 715T128 729H318Q434 729 492 677T550 538V495Q550 431 513 382T403 316Q488 182
552 55ZM460 495V538Q460 584 426 614T317 645H173V384H316Q387 384 423 416T460 495Z" />
<glyph unicode="S" glyph-name="S" horiz-adv-x="577" d="M531 215Q531 109 461 50T271 -9Q155 -9 79 23Q50 35 50 64Q50 81 61 94T90 107Q98 107 123 97T175 82Q216 73 264 73Q352 73 396 109T441 207Q441 251 418 275T344 314Q326 320 250 336T142 367Q52 411
52 523Q52 623 118 680T287 738Q386 738 454 710Q483 700 483 670Q483 652 472 639T441 626Q434 626 412 634T367 648Q334 655 292 655Q222 655 182 622T142 531Q142 486 166 463T241 426Q263 420 311 411T397 391T459 364Q531 317 531 215Z" />
<glyph unicode="T" glyph-name="T" horiz-adv-x="573" d="M564 703T564 685T551 655T520 642H331V36Q331 17 318 4T286 -9Q268 -9 255 4T241 36V642H52Q34 642 22 654T9 685T21 716T52 729H520Q538 729 551 716Z" />
<glyph unicode="U" glyph-name="U" horiz-adv-x="633" d="M566 237Q566 129 503 60T317 -9Q193 -9 130 60T67 237V693Q67 712 80 725T111 738Q130 738 143 725T156 693V240Q156 166 194 119T317 71Q400 71 438 118T476 240V693Q476 711 489 724T521 738Q540 738
553 725T566 693V237Z" />
<glyph unicode="V" glyph-name="V" horiz-adv-x="567" d="M552 684Q466 394 335 36Q320 -9 282 -9Q243 -9 227 37Q98 393 15 680Q8 705 23 721T60 738Q92 738 101 704Q189 407 285 140Q385 417 470 707Q480 738 510 738Q530 738 544 723T552 684Z" />
<glyph unicode="W" glyph-name="W" horiz-adv-x="868" d="M850 696Q850 692 848 684Q780 380 684 43Q669 -9 626 -9Q582 -9 568 42Q493 304 434 556Q375 304 300 42Q286 -9 242 -9Q199 -9 184 43Q88 380 20 684Q18 692 18 696Q18 715 32 726T64 738Q97 738 106
703Q160 454 245 143Q323 426 380 685Q392 738 435 738Q476 738 488 685Q553 397 623 143Q702 428 762 703Q771 738 804 738Q822 738 836 727T850 696Z" />
<glyph unicode="X" glyph-name="X" horiz-adv-x="546" d="M540 34Q540 16 526 4T494 -9Q471 -9 458 14Q375 155 273 302Q171 155 88 14Q75 -9 52 -9Q34 -9 20 3T6 34Q6 48 12 58Q98 205 220 381Q116 530 39 672Q34 682 34 695Q34 713 47 725T79 738Q102 738 116
714Q186 585 273 457Q353 577 429 714Q442 738 466 738Q484 738 498 725T512 694Q512 682 506 672Q432 534 326 379Q463 179 533 57Q540 46 540 34Z" />
<glyph unicode="Y" glyph-name="Y" horiz-adv-x="503" d="M503 695Q503 689 499 677Q419 494 296 267V36Q296 17 283 4T251 -9T219 4T206 36V267Q90 479 4 675Q0 683 0 694Q0 713 14 725T47 738Q73 738 86 711Q145 570 252 369Q347 545 419 711Q432 738 457 738Q475
738 489 726T503 695Z" />
<glyph unicode="Z" glyph-name="Z" horiz-adv-x="519" d="M499 61T499 43T487 13T456 0H62Q43 0 31 12T19 43T32 85L376 643H63Q46 643 34 655T21 686Q21 703 33 716T63 729H455Q475 729 486 717T497 686Q497 668 484 648L137 86H456Q474 86 486 74Z" />
<glyph unicode="[" glyph-name="bracketleft" horiz-adv-x="277" d="M230 -123T230 -141T217 -171T186 -184H93Q75 -184 63 -172T50 -141V780Q50 798 62 810T93 823H186Q204 823 217 811T230 780Q230 763 217 751T186 738H140V-97H186Q204 -97 217 -110Z" />
<glyph unicode="\" glyph-name="backslash" horiz-adv-x="366" d="M370 -10Q375 -26 369 -41T347 -62Q331 -68 316 -61T294 -39L0 736Q-6 752 0 767T23 788Q39 794 54 788T75 765L370 -10Z" />
<glyph unicode="]" glyph-name="bracketright" horiz-adv-x="277" d="M227 -141Q227 -159 214 -171T183 -184H90Q72 -184 60 -172T47 -141T59 -110T90 -97H137V738H90Q72 738 60 750T47 780Q47 798 59 810T90 823H183Q201 823 214 811T227 780V-141Z" />
<glyph unicode="^" glyph-name="asciicircum" horiz-adv-x="500" d="M447 465Q456 452 453 436T436 410Q422 400 406 403T380 421L250 626L120 421Q111 407 95 404T65 410Q51 419 48 435T53 465L208 709Q224 735 250 735T292 709L447 465Z" />
<glyph unicode="_" glyph-name="underscore" horiz-adv-x="470" d="M508 -119T508 -135T497 -162T470 -174H0Q-16 -174 -27 -163T-39 -135T-28 -108T0 -96H470Q486 -96 497 -107Z" />
<glyph unicode="`" glyph-name="grave" horiz-adv-x="530" d="M209 798Q218 803 229 803Q252 803 262 782L337 644Q341 634 341 628Q341 608 322 599Q314 594 306 594Q288 594 276 614L195 748Q189 755 189 767Q189 787 209 798Z" />
<glyph unicode="a" glyph-name="a" horiz-adv-x="504" d="M467 32Q467 -6 424 -6Q393 -6 372 15Q359 25 352 45Q305 -6 212 -6Q124 -6 81 34T37 141V149Q37 215 83 254T221 294H335V318Q335 382 314 410T232 438Q175 438 130 413Q109 402 91 413T72 442T90 476Q146
511 237 511Q340 511 381 463T422 310V124Q422 96 428 83T450 61Q467 52 467 32ZM335 167V226H230Q124 226 124 148V140Q124 62 227 62Q278 62 306 88T335 167Z" />
<glyph unicode="b" glyph-name="b" horiz-adv-x="522" d="M468 199Q468 101 422 48T282 -6Q208 -6 150 36Q141 22 133 15Q109 -6 80 -6Q37 -6 37 32Q37 52 54 61Q70 70 76 82T82 124V681Q82 699 94 711T125 724T156 712T169 681V464Q222 511 295 511Q389 511 428
456T468 295V199ZM380 193V306Q380 371 356 403T277 435Q212 435 169 382V108Q215 70 270 70Q380 70 380 193Z" />
<glyph unicode="c" glyph-name="c" horiz-adv-x="426" d="M393 433Q386 419 373 415T345 416Q309 436 259 436Q204 436 173 397T142 293V212Q142 144 170 107T256 69Q306 69 347 90Q362 96 375 91T395 72Q401 56 396 43T377 23Q324 -6 252 -6Q152 -6 103 54T54
216V286Q54 383 105 447T252 511Q330 511 377 482Q409 464 393 433Z" />
<glyph unicode="d" glyph-name="d" horiz-adv-x="522" d="M485 32Q485 -6 442 -6Q413 -6 389 15Q376 26 372 39Q310 -6 239 -6Q54 -6 54 197V287Q54 511 233 511Q301 511 353 472V680Q353 699 365 711T396 724Q415 724 427 712T440 680V124Q440 95 446 83T468
62Q485 51 485 32ZM353 112V389Q310 435 249 435Q142 435 142 300V191Q142 129 167 100T252 70Q304 70 353 112Z" />
<glyph unicode="e" glyph-name="e" horiz-adv-x="494" d="M447 260Q447 245 438 236T414 226H141V199Q141 138 169 104T254 69Q325 69 379 97Q393 104 407 98T426 77Q437 46 409 30Q340 -6 251 -6Q150 -6 102 53T54 206V299Q54 392 103 451T251 511Q354 511 400
453T447 301V260ZM362 295V312Q362 439 253 439Q141 439 141 312V295H362Z" />
<glyph unicode="f" glyph-name="f" horiz-adv-x="315" d="M338 706T338 689T327 661T298 650H271Q211 650 190 623T169 529V505H252Q268 505 279 494T290 467Q290 452 279 441T252 430H169V38Q169 19 156 7T125 -6T95 6T82 38V430H53Q38 430 27 441T16 467Q16
483 27 494T53 505H82V529Q82 627 123 678T262 729H298Q315 729 326 718Z" />
<glyph unicode="g" glyph-name="g" horiz-adv-x="512" d="M441 37Q441 -64 393 -123T239 -183Q158 -183 103 -159Q77 -147 77 -124Q77 -107 90 -95T120 -87Q126 -88 147 -94T188 -104T234 -108Q354 -108 354 33V61Q296 21 230 21Q135 21 95 75T54 231V297Q54 511
232 511Q302 511 357 463L358 483Q358 495 370 503T397 511Q417 511 429 499T441 467V37ZM354 139V385Q309 434 247 434Q142 434 142 307V221Q142 158 165 128T245 98Q307 98 354 139Z" />
<glyph unicode="h" glyph-name="h" horiz-adv-x="531" d="M461 38Q461 19 449 7T418 -6T387 6T374 38V320Q374 372 354 400T279 428Q196 428 158 365V38Q158 19 145 7T114 -6T84 6T71 38V680Q71 699 83 711T114 724T145 712T158 680V463Q211 511 298 511Q461 511
461 328V38Z" />
<glyph unicode="i" glyph-name="i" horiz-adv-x="229" d="M169 667Q169 645 153 630T114 614T76 629T60 667Q60 690 75 706T114 722T153 706T169 667ZM158 38Q158 19 145 7T114 -6T84 6T71 38V467Q71 486 83 498T114 511T145 499T158 467V38Z" />
<glyph unicode="j" glyph-name="j" horiz-adv-x="229" d="M158 6Q158 -183 -12 -183Q-29 -183 -39 -172T-50 -145T-40 -119T-12 -107Q31 -105 50 -82T70 1V466Q70 485 83 497T114 510Q133 510 145 497T158 466V6ZM60 667Q60 690 76 705T114 721T152 706T168 667Q168
645 153 630T114 614T76 629T60 667Z" />
<glyph unicode="k" glyph-name="k" horiz-adv-x="467" d="M446 54Q457 30 443 12T406 -6Q380 -6 369 20Q310 139 230 248L158 176V38Q158 19 145 7T114 -6T84 6T71 38V680Q71 699 83 711T114 724T145 712T158 680V282L372 500Q384 511 400 511T429 499Q440 488
440 471T428 444L291 307Q386 177 446 54Z" />
<glyph unicode="l" glyph-name="l" horiz-adv-x="240" d="M203 32Q203 -6 159 -6Q132 -6 106 15Q67 49 67 109V680Q67 699 80 711T111 724T142 712T155 680V124Q155 95 162 83T186 62Q203 51 203 32Z" />
<glyph unicode="m" glyph-name="m" horiz-adv-x="831" d="M761 38Q761 19 748 7T717 -6T686 6T673 38V320Q673 373 653 400T581 428Q500 428 464 364Q467 348 467 329V38Q467 19 454 7T423 -6T392 6T379 38V320Q379 373 359 400T287 428Q208 428 172 369V38Q172
19 160 7T129 -6T98 6T85 38V375Q85 403 78 416T54 438Q37 447 37 467Q37 505 80 505Q108 505 134 484Q147 472 155 455Q211 511 306 511Q404 511 441 445Q496 511 599 511Q761 511 761 329V38Z" />
<glyph unicode="n" glyph-name="n" horiz-adv-x="547" d="M477 38Q477 19 464 7T432 -6Q414 -6 401 6T388 38V320Q388 373 368 400T294 428Q212 428 172 365V38Q172 19 160 7T129 -6T98 6T85 38V375Q85 403 78 416T54 438Q37 447 37 467Q37 505 80 505Q108 505
134 484Q150 468 156 451Q211 511 313 511Q476 511 476 328L477 38Z" />
<glyph unicode="o" glyph-name="o" horiz-adv-x="511" d="M456 201Q456 109 407 52T255 -6Q154 -6 104 51T54 201V304Q54 396 104 453T255 511Q357 511 406 454T456 304V201ZM369 201V303Q369 430 255 430Q142 430 142 303V201Q142 74 255 74Q369 74 369 201Z" />
<glyph unicode="p" glyph-name="p" horiz-adv-x="522" d="M468 218Q468 -6 288 -6Q221 -6 169 33V-139Q169 -158 157 -170T125 -183Q107 -183 95 -171T82 -139V381Q82 409 76 422T54 444Q37 453 37 473Q37 511 80 511Q108 511 133 490Q144 480 151 466Q211 511
282 511Q468 511 468 309V218ZM380 205V314Q380 376 355 405T270 435Q219 435 169 394V116Q212 70 273 70Q380 70 380 205Z" />
<glyph unicode="q" glyph-name="q" horiz-adv-x="522" d="M485 473Q485 453 468 444Q452 435 446 423T440 381V-139Q440 -158 428 -170T397 -183Q378 -183 366 -171T353 -139V41Q300 -6 227 -6Q133 -6 94 49T54 210V306Q54 404 100 457T240 511Q314 511 372 469Q381
483 389 490Q413 511 442 511Q485 511 485 473ZM353 123V397Q307 435 251 435Q142 435 142 312V199Q142 134 166 102T245 70Q310 70 353 123Z" />
<glyph unicode="r" glyph-name="r" horiz-adv-x="390" d="M387 463Q387 444 376 432T345 419Q339 419 322 422T284 426Q192 426 172 336V38Q172 19 160 7T129 -6T98 6T85 38V375Q85 403 78 416T54 438Q37 447 37 467Q37 505 81 505Q108 505 129 487T161 443Q209
510 299 510Q334 510 360 499T387 463Z" />
<glyph unicode="s" glyph-name="s" horiz-adv-x="436" d="M395 148Q395 73 343 34T204 -6Q122 -6 62 16Q47 21 41 35T40 65Q45 81 59 87T90 88Q139 69 205 69Q258 69 284 89T311 145Q311 160 305 172T291 191T266 204T239 212T204 220T170 227Q109 241 75 269T41
362Q41 432 89 471T212 511Q286 511 342 489Q357 484 363 470T364 440T345 419T316 417Q264 437 216 437Q172 437 148 418T124 366Q124 358 126 351T130 338T139 327T149 319T163 312T177 306T195 301T212 297T231 293T251 289Q283 283 304 276T348 253T383 212T395
148Z" />
<glyph unicode="t" glyph-name="t" horiz-adv-x="337" d="M326 57T326 40T315 12T287 0H257Q159 0 121 55T83 217V430H54Q38 430 27 441T16 467Q16 483 27 494T54 505H83V608Q83 626 95 639T127 652Q145 652 157 639T170 608V505H263Q279 505 290 494T301 467Q301
452 290 441T263 430H170L171 218Q171 140 190 110T266 80H287Q303 80 314 69Z" />
<glyph unicode="u" glyph-name="u" horiz-adv-x="547" d="M511 51T511 32T499 4T467 -6Q438 -6 414 15Q398 29 389 52Q334 -6 235 -6Q71 -6 71 176V467Q71 486 83 498T114 511Q133 511 145 499T158 467V185Q158 131 178 104T253 77Q339 77 374 144V467Q374 486
387 498T418 511T449 498T462 467V124Q462 95 469 83T493 62Q511 51 511 32Z" />
<glyph unicode="v" glyph-name="v" horiz-adv-x="463" d="M441 456Q365 231 286 38Q268 -6 229 -6Q188 -6 171 38Q82 268 21 458Q15 481 28 496T62 511Q90 511 99 483Q157 302 229 109Q298 288 361 482Q371 511 400 511Q421 511 435 495T441 456Z" />
<glyph unicode="w" glyph-name="w" horiz-adv-x="708" d="M685 463Q617 200 562 33Q549 -6 507 -6Q464 -6 453 33Q405 184 354 368Q301 175 255 33Q244 -6 201 -6Q159 -6 146 33Q82 231 24 463Q19 484 32 497T64 511Q96 511 103 480Q164 249 205 115Q262 301 305
472Q313 511 355 511Q394 511 403 472Q457 266 504 115Q558 294 605 480Q612 511 645 511Q664 511 676 498T685 463Z" />
<glyph unicode="x" glyph-name="x" horiz-adv-x="448" d="M417 58Q430 33 415 14T376 -6Q350 -6 337 19Q301 87 222 191Q137 77 106 17Q93 -6 70 -6T33 12T30 54Q66 122 170 258Q78 380 43 449Q32 473 47 492T85 511Q112 511 125 486Q165 407 225 330Q296 426
327 487Q338 511 364 511Q386 511 400 494T403 453Q363 373 276 262Q379 132 417 58Z" />
<glyph unicode="y" glyph-name="y" horiz-adv-x="454" d="M433 453L298 70Q253 -60 197 -119T51 -183Q29 -184 17 -172T4 -140Q4 -124 14 -112T44 -98Q88 -97 122 -75T186 4Q75 276 18 457Q11 480 24 495T59 511Q89 511 98 481Q160 292 228 113L352 482Q360 511
391 511Q413 511 427 494T433 453Z" />
<glyph unicode="z" glyph-name="z" horiz-adv-x="424" d="M404 466Q404 450 392 432L137 78H365Q382 78 393 67T404 39Q404 23 393 12T365 0H61Q46 0 34 12T21 43Q21 59 29 68L287 426H77Q61 426 50 438T38 466T49 493T77 505H363Q379 505 391 495T404 466Z" />
<glyph unicode="{" glyph-name="braceleft" horiz-adv-x="316" d="M271 -139Q271 -158 260 -170T229 -183H222Q162 -183 123 -139T83 -17Q83 21 102 96T122 202Q122 244 106 263T70 283H65Q50 283 40 294T30 320Q30 336 39 346T65 357H70Q90 357 106 376T122 439Q122
470 103 544T83 657Q83 735 122 779T222 823H229Q248 823 259 811T271 780T260 750T232 737H227Q204 737 188 715T172 653Q172 618 191 548T211 441Q211 354 148 323V318Q211 286 211 200Q211 162 192 92T172 -13Q172 -53 188 -75T227 -97H232Q249 -97 260 -109T271
-139Z" />
<glyph unicode="|" glyph-name="bar" horiz-adv-x="236" d="M163 -138Q163 -157 150 -170T118 -183T86 -170T73 -138V780Q73 799 86 812T118 825T150 812T163 780V-138Z" />
<glyph unicode="}" glyph-name="braceright" horiz-adv-x="316" d="M286 320Q286 305 277 294T252 283H246Q226 283 210 264T194 202Q194 171 213 96T233 -17Q233 -95 194 -139T94 -183H87Q68 -183 57 -171T45 -139Q45 -121 56 -109T84 -97H89Q112 -97 127 -75T143
-13Q143 21 125 91T106 200Q106 287 169 318V323Q106 354 106 441Q106 478 124 548T143 653Q143 693 128 715T89 737H84Q67 737 56 749T45 780T57 810T87 823H94Q155 823 194 779T233 657Q233 619 214 545T194 439Q194 396 210 377T246 357H252Q267 357 276 347T286
320Z" />
<glyph unicode="~" glyph-name="asciitilde" horiz-adv-x="544" d="M483 291Q483 257 445 235T357 213Q318 213 269 236T194 259Q166 259 143 244T106 228Q87 228 74 241T61 273Q61 307 99 329T187 351Q226 351 275 328T350 304Q378 304 401 320T438 336Q457 336
470 323T483 291Z" />
</font>
</defs>
</svg>
