<svg id="Layer_1" data-name="Layer 1" xmlns="http://www.w3.org/2000/svg" viewBox="0 0 52.99 41.11"><title>Icon-Air</title><path d="M20.11,33.2c-1.9-5.58,1.25-7.67,1.92-8a3,3,0,0,0-2.75-5.33c-3,1.5-7.81,6.64-4.85,15.31,1,3,1.83,5,2.5,6.66,1.22,3,1.63,4,1.56,6.46-0.14,5.06-1.68,7.13-1.72,7.19a3,3,0,1,0,4.36,4.1h0c0.52-.56,3.14-3.71,3.34-11.14,0.1-3.67-.69-5.62-2-8.86C21.86,38,21.07,36,20.11,33.2Z" transform="translate(-13.51 -19.5)"/><path d="M41.11,33.2c-1.9-5.58,1.25-7.67,1.92-8a3,3,0,0,0-2.75-5.33c-3,1.5-7.81,6.64-4.85,15.31,1,3,1.83,5,2.5,6.66,1.22,3,1.63,4,1.56,6.46-0.14,5.06-1.68,7.13-1.72,7.19a3,3,0,1,0,4.36,4.1h0c0.52-.56,3.14-3.71,3.34-11.14,0.1-3.67-.69-5.62-2-8.86C42.86,38,42.07,36,41.11,33.2Z" transform="translate(-13.51 -19.5)"/><path d="M64.5,39.55C63.86,38,63.07,36,62.11,33.2c-1.9-5.58,1.25-7.67,1.92-8a3,3,0,0,0-2.75-5.33c-3,1.5-7.81,6.64-4.85,15.31,1,3,1.83,5,2.5,6.66,1.22,3,1.63,4,1.56,6.46-0.14,5.06-1.68,7.13-1.72,7.19a3,3,0,1,0,4.36,4.1h0c0.52-.56,3.14-3.71,3.34-11.14C66.59,44.75,65.8,42.79,64.5,39.55Z" transform="translate(-13.51 -19.5)"/></svg>