<svg xmlns="http://www.w3.org/2000/svg" width="23" height="16" viewBox="0 0 23 16">
  <defs>
    <style>
      .cls-1 {
        fill: #c0bebc;
        fill-rule: evenodd;
      }
    </style>
  </defs>
  <path id="Bed" class="cls-1" d="M4,5H19a1,1,0,0,1,1,1V8a1,1,0,0,1-1,1H4A1,1,0,0,1,3,8V6A1,1,0,0,1,4,5ZM1,0A1,1,0,0,1,2,1V15a1,1,0,0,1-2,0V1A1,1,0,0,1,1,0ZM1,10H22a1,1,0,0,1,0,2H1A1,1,0,0,1,1,10ZM22,4a1,1,0,0,1,1,1V15a1,1,0,0,1-2,0V5A1,1,0,0,1,22,4ZM4.5,3h3A1.5,1.5,0,0,1,9,4.5v1A1.5,1.5,0,0,1,7.5,7h-3A1.5,1.5,0,0,1,3,5.5v-1A1.5,1.5,0,0,1,4.5,3Z"/>
</svg>
