<?xml version="1.0" encoding="utf-8"?>
<!-- Generator: Adobe Illustrator 19.2.1, SVG Export Plug-In . SVG Version: 6.00 Build 0)  -->
<svg version="1.1" id="Layer_1" xmlns="http://www.w3.org/2000/svg" xmlns:xlink="http://www.w3.org/1999/xlink" x="0px" y="0px"
	 viewBox="0 0 22 22" style="enable-background:new 0 0 22 22;" xml:space="preserve">
<title>Cross</title>
<path d="M13.9,11l7.5,7.4c0.8,0.8,0.8,2.1,0,2.9c-0.8,0.8-2,0.8-2.8,0.1c0,0,0,0,0,0L11,13.9l-7.5,7.5c-0.8,0.8-2.1,0.8-2.9,0
	c-0.8-0.8-0.8-2-0.1-2.8c0,0,0,0,0,0L8.1,11L0.6,3.6c-0.8-0.8-0.8-2.1,0-2.9c0.8-0.8,2-0.8,2.8-0.1c0,0,0,0,0,0L11,8.1l7.4-7.5
	c0.8-0.8,2.1-0.8,2.9,0c0.8,0.8,0.8,2,0.1,2.8c0,0,0,0,0,0L13.9,11z"/>
</svg>
