<?xml version="1.0" encoding="utf-8"?>
<!-- Generator: Adobe Illustrator 19.1.0, SVG Export Plug-In . SVG Version: 6.00 Build 0)  -->
<svg version="1.1" id="Слой_1" xmlns="http://www.w3.org/2000/svg" xmlns:xlink="http://www.w3.org/1999/xlink" x="0px" y="0px"
	 viewBox="5 7 38 38" style="enable-background:new 5 7 38 38;" xml:space="preserve">
<style type="text/css">
	.st0{fill:#2196F3;}
	.st1{fill:#E3F2FD;}
</style>
<circle class="st0" cx="24" cy="26" r="19"/>
<g>
	<path class="st1" d="M23.8,33.1c-0.7,0-1.3,0.2-1.8,0.7c-0.5,0.5-0.7,1.1-0.7,1.8c0,0.7,0.2,1.3,0.7,1.8c0.5,0.5,1.1,0.7,1.8,0.7
		s1.4-0.2,1.8-0.7c0.5-0.5,0.7-1.1,0.7-1.8c0-0.7-0.2-1.3-0.7-1.8C25.1,33.4,24.5,33.1,23.8,33.1z"/>
	<path class="st1" d="M29.2,16.6C28,15.5,26.3,15,24.1,15c-2.2,0-3.9,0.6-5.1,1.7c-1.2,1.1-1.8,2.5-1.9,4.3l0,0v1h4.5l0-0.7
		c0-0.8,0.3-1.5,0.7-1.9c0.5-0.5,1.1-0.7,1.8-0.7c1.6,0,2.4,0.9,2.4,2.6c0,0.6-0.2,1.1-0.5,1.6c-0.3,0.5-0.9,1.2-1.9,2
		c-0.9,0.8-1.6,1.7-1.9,2.5c-0.4,0.9-0.5,2.1-0.5,3.5h4l0.1-1c0.1-1,0.6-1.9,1.4-2.6l1.3-1.2c1-0.9,1.7-1.8,2.1-2.6s0.6-1.6,0.6-2.5
		C31,19.1,30.4,17.6,29.2,16.6z"/>
</g>
</svg>
