<?xml version="1.0" encoding="utf-8"?>
<!-- Generator: Adobe Illustrator 15.0.0, SVG Export Plug-In . SVG Version: 6.00 Build 0)  -->
<!DOCTYPE svg PUBLIC "-//W3C//DTD SVG 1.1//EN" "http://www.w3.org/Graphics/SVG/1.1/DTD/svg11.dtd">
<svg xmlns="http://www.w3.org/2000/svg" xmlns:xlink="http://www.w3.org/1999/xlink" version="1.1" id="Layer_1" x="0px" y="0px" width="26px" height="26px" viewBox="0 0 26 26" enable-background="new 0 0 26 26" xml:space="preserve">

<g>
	<path fill="#000000" d="M14.137,17.766c-1.545,0-3.056-0.564-4.195-1.705c-0.637-0.635-0.637-1.663-0.002-2.298   s1.664-0.635,2.298-0.001c1.11,1.108,3.036,0.988,4.293-0.271l5.013-5.013c0.671-0.668,1.054-1.541,1.054-2.395   c0-0.51-0.136-1.25-0.78-1.896c-0.691-0.692-1.484-0.806-2.038-0.778c-0.817,0.037-1.618,0.41-2.255,1.047L14.649,7.33   c-0.672-0.672-3.433-1.165-4.181-0.416l4.756-4.755c1.21-1.21,2.771-1.919,4.4-1.997c1.699-0.078,3.293,0.533,4.487,1.727   c1.119,1.117,1.735,2.607,1.735,4.195c-0.001,1.71-0.732,3.421-2.008,4.693l-5.012,5.012   C17.516,17.104,15.808,17.766,14.137,17.766z"/>
</g>
<g>
	<path fill="#000000" d="M11.863,8.234c1.543,0,3.055,0.564,4.196,1.705c0.636,0.635,0.635,1.663,0,2.298   c-0.634,0.635-1.663,0.635-2.298,0c-1.109-1.107-3.035-0.986-4.293,0.271l-5.013,5.013c-0.67,0.668-1.054,1.541-1.054,2.395   c0,0.508,0.136,1.25,0.781,1.896c0.691,0.69,1.484,0.806,2.038,0.78c0.817-0.039,1.618-0.412,2.255-1.049l2.873-2.872   c0.672,0.671,3.433,1.164,4.182,0.415l-4.756,4.755c-1.209,1.21-2.771,1.919-4.399,1.997c-1.7,0.08-3.294-0.532-4.489-1.727   c-1.119-1.117-1.734-2.607-1.734-4.195c0.001-1.71,0.731-3.421,2.007-4.693l5.012-5.012C8.483,8.898,10.193,8.234,11.863,8.234z"/>
</g>
</svg>
