<?xml version="1.0" encoding="utf-8"?>
<!-- Generator: Adobe Illustrator 15.0.0, SVG Export Plug-In . SVG Version: 6.00 Build 0)  -->
<!DOCTYPE svg PUBLIC "-//W3C//DTD SVG 1.1//EN" "http://www.w3.org/Graphics/SVG/1.1/DTD/svg11.dtd">
<svg version="1.1" id="Слой_1" xmlns="http://www.w3.org/2000/svg" xmlns:xlink="http://www.w3.org/1999/xlink" x="0px" y="0px"
	 width="50px" height="50px" viewBox="0 0 50 50" enable-background="new 0 0 50 50" xml:space="preserve">
<g>
	<path d="M23.569,27.945l1.91,0.947c-0.237-0.913-0.507-2.047-0.68-2.793L23.569,27.945z"/>
	<path d="M18.747,25.553l1.11,0.551c0.47-0.671,1.127-1.611,1.543-2.205h-1L18.747,25.553z"/>
	<path d="M47.566,39.2L27.464,4.396C26.954,3.522,26.033,3,25,3c-1.033,0-1.954,0.522-2.467,1.401L2.432,39.304
		c-0.551,0.966-0.547,2.162,0.011,3.123c0.537,0.926,1.483,1.478,2.531,1.478c0.062,0,0.125-0.002,0.126-0.004h39.7
		c1.152,0,2.181-0.588,2.752-1.573C48.12,41.348,48.127,40.181,47.566,39.2z M26.2,18c1.05,0,1.899,0.851,1.899,1.9
		s-0.85,1.9-1.899,1.9c-1.049,0-1.9-0.851-1.9-1.9S25.151,18,26.2,18z M26,38c0,0,1.6-3.2,1.9-3.8c0.1-0.3,0.5-0.4,0.899-0.4
		c0.248,0,0.537-0.247,0.838-0.613l-6.484-3.216c0.413,0.768,1.2,2.236,1.347,2.529c0.1,0.2,0.2,0.5,0.2,0.7s0.1,3,0.1,3.6
		c0,0.7,0,1.2-0.8,1.2s-0.8-1-0.8-1l-0.5-4.1l-2.2-2l-2.4,6.3c0,0-0.3,1.1-1.2,0.8c-0.8-0.3-0.7-1.3-0.6-1.5
		c0.1-0.2,2.3-7.8,2.4-8.1c0.04-0.121,0.101-0.329,0.173-0.552l-1.518-0.753c-0.413-0.204-0.604-0.653-0.52-1.085
		C16.726,25.797,16.701,25.5,17,25.2c0,0,2.7-2.9,2.8-3c0.1-0.1,0.2-0.2,0.5-0.2c0.2-0.1,2.9-0.2,2.9-0.2c0.2,0,0.6,0.2,1.5,0.8
		c1,0.6,1.3,1.1,1.3,1.1c0.1,0.2,0.2,0.4,0.3,0.7c0,0,0.673,3.882,0.984,5.387l3.26,1.617c0.081,0.04,0.142,0.103,0.206,0.16
		C31.47,30.518,31.672,30.5,32,30.5c0.3,0,0.7,0.3,1,1c0.2,0.6,3,6.5,3,6.5H26z"/>
</g>
</svg>
